<?xml version="1.0" encoding="utf-8"?>
<!-- Generator: Adobe Illustrator 23.0.2, SVG Export Plug-In . SVG Version: 6.00 Build 0)  -->
<svg version="1.1" id="Capa_1" xmlns="http://www.w3.org/2000/svg" xmlns:xlink="http://www.w3.org/1999/xlink" x="0px" y="0px"
	 viewBox="0 0 52 52" style="enable-background:new 0 0 52 52;" xml:space="preserve">
<style type="text/css">
	.st0{fill:#020203;}
</style>
<g>
	<path class="st0" d="M-318.15,29.1l-3.01-4.58c-0.16-0.27-0.23-0.59-0.27-0.9c-0.51-5.64-4.93-10.14-10.57-10.68
		c0.12,1.17-0.35,2.35-1.25,3.13l-2,1.68l0.63,2.54c0.27,1.1,0,2.23-0.7,3.13c-0.7,0.86-1.76,1.41-2.9,1.41
		c-0.67,0-1.33-0.16-1.92-0.51l-2.23-1.37l-2.19,1.37c-0.08,0.08-0.2,0.12-0.31,0.16c0,0.08,0,0.12,0,0.2
		c0,3.87,1.84,7.63,4.74,10.1c0.35,0.31,0.55,0.7,0.55,1.17v6.73c0,0.55,0.43,0.98,0.94,1.02l10.14,0.86
		c0.63,0.04,1.13-0.43,1.13-1.02v-4.77c0-0.31,0.27-0.55,0.55-0.55h3.52c1.1,0,1.96-0.9,1.96-1.96v-4.77c0-0.2,0.16-0.39,0.39-0.39
		h1.72C-318.19,31.13-317.56,29.96-318.15,29.1z"/>
	<path class="st0" d="M-341.71,20.29l2.97,1.8c0.82,0.51,1.88-0.23,1.64-1.17l-0.82-3.37c-0.08-0.39,0.04-0.82,0.35-1.1l2.66-2.27
		c0.74-0.63,0.35-1.84-0.63-1.92l-3.48-0.27c-0.39-0.04-0.78-0.27-0.94-0.67l-1.33-3.21c-0.39-0.9-1.64-0.9-2.04,0l-1.33,3.21
		c-0.16,0.39-0.51,0.63-0.94,0.67l-3.48,0.27c-0.98,0.04-1.37,1.25-0.63,1.88l2.66,2.27c0.31,0.27,0.43,0.7,0.35,1.1l-0.82,3.4
		c-0.23,0.94,0.82,1.68,1.64,1.17l2.97-1.8C-342.49,20.09-342.06,20.09-341.71,20.29z"/>
</g>
<path class="st0" d="M-274.08,26.84c-0.31-0.93-0.35-1.81-0.12-2.66c0.23-0.96,0.77-1.78,1.35-2.35c0.39-0.39,0.81-0.73,1.23-1.04
	c0.39-0.27,0.77-0.46,1.23-0.62l0,0c0.35-0.12,0.73-0.19,1.12-0.19c1.2-0.12,2.12,0.19,2.78,0.58c0.96,0.54,1.35,1.27,1.35,1.27
	s2.47,0.15,1.39,5.33c0.35,0.12,0.58,0.58,0.19,1.93c-0.46,1.66-0.89,1.78-1.16,1.58c-0.31,1.81-1.27,4.13-4.4,4.24
	c-3.16-0.23-4.17-2.62-4.48-4.44c-0.27-0.04-0.58-0.39-0.96-1.66C-275.04,27.08-274.54,26.81-274.08,26.84z M-269.02,44.56h5.29
	h5.36h3.59h0.04h8.99c-0.04-3.74,0.12-5.71-2.32-6.6c-2.2-0.85-3.51-1.7-3.51-1.7l-1.7,5.36l-0.23,0.73l-0.77-2.16
	c1.74-2.43-0.12-2.55-0.46-2.55l0,0l0,0l0,0l0,0l0,0l0,0c-0.31,0-2.2,0.12-0.46,2.55l-0.77,2.16l-0.23-0.73l-1.7-5.36
	c0,0-0.73,0.5-2.05,1.08c-0.31-0.23-0.69-0.46-1.16-0.62c-2.62-1-4.17-2.01-4.17-2.01l-2.01,6.37l-0.27,0.85l-0.89-2.55
	c2.08-2.89-0.15-3.01-0.54-3.01l0,0l0,0l0,0l0,0l0,0l0,0c-0.39,0-2.62,0.15-0.54,3.01l-0.89,2.55l-0.27-0.85l-2.08-6.41
	c0,0-1.58,1-4.17,2.01c-2.89,1.04-2.7,3.4-2.74,7.83h10.65V44.56z M-259.41,31.28c0.31,1.08,0.58,1.39,0.81,1.39
	c0.23,1.54,1.08,3.55,3.74,3.74c2.62-0.12,3.43-2.05,3.7-3.59c0.23,0.15,0.58,0.08,0.96-1.35c0.31-1.16,0.12-1.54-0.15-1.62
	c0.93-4.36-1.16-4.52-1.16-4.52s-0.31-0.62-1.16-1.04c-0.54-0.31-1.31-0.58-2.35-0.5c-0.35,0-0.66,0.08-0.93,0.19l0,0
	c-0.39,0.12-0.73,0.31-1.04,0.54c-0.39,0.23-0.73,0.54-1.04,0.89c-0.5,0.5-0.96,1.16-1.16,2.01c-0.19,0.69-0.19,1.47,0.08,2.24
	C-259.37,29.62-259.84,29.82-259.41,31.28z M-258.06,12.64c-0.89,0.85-0.93,2.28-0.08,3.16c0.85,0.89,2.28,0.93,3.16,0.08
	c0.89-0.85,0.93-2.28,0.08-3.16C-255.75,11.79-257.18,11.76-258.06,12.64z M-251.66,19.09c-2.28,2.28-5.71,2.62-8.34,1.08l0,0
	c-1.04,0.77-2.16,0.93-2.93,0.81c-0.27-0.04-0.31-0.39-0.08-0.5c0.69-0.35,1.16-1.04,1.43-1.58l-0.08-0.04
	c-2.39-2.7-2.28-6.83,0.27-9.42c2.66-2.66,7.02-2.66,9.72,0C-248.99,12.06-248.99,16.42-251.66,19.09z M-251.43,14.69v-0.66
	c0-0.23-0.19-0.42-0.42-0.42h-0.66c-0.08-0.54-0.31-1.08-0.62-1.54l0.46-0.46c0.15-0.15,0.19-0.42,0-0.62l-0.46-0.46
	c-0.15-0.15-0.42-0.19-0.62,0l-0.39,0.39c-0.46-0.35-0.96-0.54-1.51-0.66V9.59c0-0.23-0.19-0.42-0.42-0.42h-0.66
	c-0.23,0-0.42,0.19-0.42,0.42v0.66c-0.54,0.08-1.08,0.31-1.54,0.62l-0.46-0.46c-0.23-0.27-0.5-0.27-0.66-0.08l-0.46,0.46
	c-0.15,0.15-0.19,0.42,0,0.62l0.46,0.46c-0.35,0.46-0.58,1-0.69,1.54h-0.66c-0.23,0-0.42,0.19-0.42,0.42v0.66
	c0,0.23,0.19,0.42,0.42,0.42h0.62c0.08,0.54,0.31,1.08,0.62,1.58l-0.5,0.42c-0.15,0.15-0.19,0.42,0,0.62l0.46,0.46
	c0.15,0.15,0.42,0.19,0.62,0l0.46-0.42c0.46,0.35,1,0.58,1.54,0.66v0.62c0,0.23,0.19,0.42,0.42,0.42h0.66
	c0.23,0,0.42-0.19,0.42-0.42V18.2c0.54-0.08,1.08-0.31,1.54-0.62l0.46,0.46c0.15,0.15,0.42,0.19,0.62,0l0.46-0.46
	c0.15-0.15,0.19-0.42,0-0.62l-0.46-0.46c0.35-0.46,0.54-1,0.66-1.54h0.66C-251.62,15.11-251.43,14.92-251.43,14.69z"/>
<g transform="translate(0,-284.29998)">
	<path class="st0" d="M-186.13,295.57c-0.31,0.01-0.58,0.18-0.74,0.44l-0.61,1.03c-0.2,0.36-0.32,0.76-0.34,1.17v0.56
		c0.02,0.17,0.16,0.29,0.33,0.29c-0.1-0.55,0.26-1.08,0.81-1.18c0.55-0.1,1.08,0.26,1.18,0.81c0.02,0.12,0.02,0.25,0,0.37h4.44
		c-0.1-0.55,0.26-1.08,0.81-1.18c0.55-0.1,1.08,0.26,1.18,0.81c0.02,0.12,0.02,0.25,0,0.37h0.35c0.19,0,0.34-0.15,0.34-0.33
		c0,0,0,0,0,0v-0.31c0-0.74-0.6-1.34-1.34-1.34h-0.74c-0.05,0-0.1-0.02-0.14-0.06l-1.62-1.44h-3.9
		C-186.11,295.57-186.12,295.57-186.13,295.57L-186.13,295.57z M-184.44,296.01h1.49c0.17,0,0.33,0.06,0.45,0.17l0.85,0.76
		c0.03,0.02,0.03,0.07,0.01,0.09c-0.01,0.02-0.04,0.03-0.06,0.02l-2.68-0.16c-0.04,0-0.06-0.03-0.06-0.07L-184.44,296.01z
		 M-185.84,296.01c0.01,0,0.01,0,0.02,0h1.05v0.8c0,0.04-0.03,0.07-0.07,0.07c0,0,0,0,0,0l-1.58-0.09c-0.04,0-0.06-0.04-0.06-0.07
		c0-0.01,0-0.02,0.01-0.03l0.27-0.46l0,0C-186.13,296.1-185.99,296.02-185.84,296.01L-185.84,296.01z"/>
	<path class="st0" d="M-191.03,293.98c-0.3,0.01-0.59,0.13-0.81,0.34c-0.31,0.3-0.33,0.8-0.02,1.12c0.01,0.01,0.02,0.02,0.02,0.02
		c0.48,0.46,1.23,0.46,1.71,0c0.31-0.3,0.33-0.8,0.02-1.12c-0.01-0.01-0.02-0.02-0.02-0.02
		C-190.37,294.09-190.7,293.96-191.03,293.98z M-191.25,294.57c0.01,0,0.02,0,0.03,0v0.22c-0.05,0-0.1,0.04-0.1,0.1
		c0,0.05,0.04,0.1,0.1,0.1c0.04,0,0.08-0.02,0.09-0.06l0.09-0.18v0c0.08-0.16,0.28-0.22,0.44-0.13c0.06,0.03,0.12,0.09,0.15,0.16
		h0.15V295h-0.14c-0.04,0.13-0.17,0.23-0.31,0.23V295c0.05,0,0.1-0.05,0.1-0.1s-0.05-0.1-0.1-0.1c-0.04,0-0.07,0.02-0.09,0.05
		l-0.1,0.18c-0.08,0.16-0.28,0.22-0.44,0.13c-0.07-0.04-0.12-0.1-0.15-0.17h-0.14v-0.23h0.14
		C-191.48,294.66-191.37,294.58-191.25,294.57L-191.25,294.57z"/>
	<path class="st0" d="M-192.61,291.48v6.82h3.33v-6.82H-192.61z M-191.74,291.79h1.6c0,0.31,0.25,0.56,0.56,0.56c0,0,0,0,0,0v5.09
		c-0.31,0-0.56,0.25-0.56,0.56c0,0,0,0,0,0h-1.6c0-0.31-0.25-0.56-0.56-0.56c0,0,0,0,0,0v-5.09
		C-191.99,292.34-191.74,292.1-191.74,291.79C-191.74,291.79-191.74,291.79-191.74,291.79z"/>
	<path class="st0" d="M-186.56,309.85c0-2.29-1.85-4.14-4.14-4.14c-2.29,0-4.14,1.85-4.14,4.14c0,0,0,0,0,0
		c0,2.29,1.85,4.14,4.14,4.14C-188.41,313.99-186.56,312.14-186.56,309.85C-186.56,309.85-186.56,309.85-186.56,309.85z"/>
	<path class="st0" d="M-190.64,297.02c0-0.17-0.13-0.31-0.3-0.31c-0.17,0-0.31,0.13-0.31,0.3c0,0,0,0,0,0.01
		c0,0.17,0.13,0.31,0.3,0.31C-190.78,297.33-190.64,297.2-190.64,297.02C-190.64,297.02-190.64,297.02-190.64,297.02z"/>
	<path class="st0" d="M-190.64,292.76c0-0.17-0.13-0.31-0.3-0.31c-0.17,0-0.31,0.13-0.31,0.3c0,0,0,0,0,0.01
		c0,0.17,0.13,0.31,0.3,0.31C-190.78,293.07-190.64,292.94-190.64,292.76C-190.64,292.76-190.64,292.76-190.64,292.76z"/>
	<path class="st0" d="M-186.11,298.87c0-0.2-0.16-0.37-0.36-0.37c-0.2,0-0.37,0.16-0.37,0.36c0,0,0,0.01,0,0.01
		c0,0.2,0.16,0.37,0.36,0.37C-186.28,299.25-186.12,299.08-186.11,298.87C-186.11,298.88-186.11,298.88-186.11,298.87z"/>
	<path class="st0" d="M-180.03,298.02c-0.45,0-0.83,0.36-0.83,0.82c0,0.01,0,0.03,0,0.04c-0.03,0.45,0.32,0.84,0.77,0.87
		c0.45,0.03,0.84-0.32,0.87-0.77c0-0.03,0-0.07,0-0.1c0.02-0.45-0.34-0.84-0.79-0.85C-180.02,298.02-180.02,298.02-180.03,298.02z
		 M-180.05,298.28c0.33-0.01,0.6,0.25,0.6,0.58c0,0.01,0,0.01,0,0.02c0,0.33-0.26,0.59-0.59,0.59c-0.33,0-0.59-0.26-0.59-0.59
		C-180.63,298.55-180.37,298.28-180.05,298.28z"/>
	<path class="st0" d="M-179.67,298.87c0-0.2-0.16-0.37-0.36-0.37s-0.37,0.16-0.37,0.36c0,0,0,0.01,0,0.01c0,0.2,0.16,0.37,0.36,0.37
		C-179.84,299.25-179.68,299.08-179.67,298.87C-179.67,298.88-179.67,298.88-179.67,298.87z"/>
	<path class="st0" d="M-186.47,298.02c-0.45,0-0.83,0.36-0.83,0.82c0,0.01,0,0.03,0,0.04c-0.02,0.45,0.33,0.84,0.79,0.86
		c0.45,0.02,0.84-0.33,0.86-0.79c0-0.02,0-0.05,0-0.07c0.02-0.45-0.34-0.84-0.79-0.85C-186.46,298.02-186.46,298.02-186.47,298.02z
		 M-186.49,298.27c0.33,0,0.59,0.26,0.6,0.58c0,0.01,0,0.01,0,0.02c0,0.33-0.26,0.59-0.58,0.6c-0.33,0-0.59-0.26-0.6-0.58
		c0,0,0-0.01,0-0.01C-187.08,298.55-186.82,298.28-186.49,298.27C-186.49,298.27-186.49,298.27-186.49,298.27z"/>
	<path class="st0" d="M-190.7,323.37h-1.39l0.68,2.68h0.71c0.74,0,1.34-0.6,1.34-1.35C-189.36,323.97-189.96,323.37-190.7,323.37z"
		/>
	<path class="st0" d="M-181.65,328.52v-9.85c0-2.19-1.77-3.96-3.96-3.96h-8.66l2.05,8.17h1.51c1.01,0,1.84,0.82,1.84,1.84
		c0,1.01-0.82,1.84-1.84,1.84h-5.03v3.04h10.57v-11.27c0-0.23,0.19-0.41,0.42-0.41c0.23,0,0.41,0.18,0.41,0.41v10.2
		c0.02,0.74,0.64,1.32,1.38,1.3C-182.24,329.8-181.67,329.23-181.65,328.52L-181.65,328.52z"/>
	<path class="st0" d="M-198.01,315.12v10.93h6.09l-2.85-11.35h-1.47C-196.86,314.71-197.46,314.85-198.01,315.12L-198.01,315.12z"/>
	<path class="st0" d="M-198.5,315.42c-1.07,0.74-1.7,1.96-1.7,3.25v7.38h1.7V315.42z"/>
	<path class="st0" d="M-187.63,305.21l-0.45-0.3l2.96-4.43l0.45,0.3L-187.63,305.21z"/>
	<path class="st0" d="M-190.7,304.59h-0.54v-5.32h0.54V304.59z"/>
	<path class="st0" d="M-193.77,305.21l0.45-0.3l-2.96-4.43l-0.45,0.3L-193.77,305.21z"/>
	<path class="st0" d="M-199.3,293.51c0,0.03,0.02,0.05,0.05,0.05c0.01,0,0.02,0,0.03-0.01l1.43-1.31c0.06-0.06,0.16-0.06,0.22,0
		l3.1,2.83c0.07,0.06,0.07,0.16,0.01,0.23c-0.03,0.03-0.08,0.05-0.12,0.05h-6.2c-0.09,0-0.16-0.07-0.16-0.16
		c0-0.05,0.02-0.09,0.05-0.12l0.76-0.69c0.02-0.01,0.03-0.02,0.03-0.04v-1.33c0-0.09,0.07-0.16,0.16-0.16c0,0,0,0,0,0h0.49
		c0.09,0,0.16,0.07,0.16,0.16L-199.3,293.51z"/>
	<path class="st0" d="M-195.63,298.18v1.12h0.79c0.03,0,0.05-0.02,0.05-0.05c0,0,0,0,0,0v-3.56c0-0.03-0.02-0.05-0.05-0.05
		c0,0,0,0,0,0h-5.64v3.61c0,0.03,0.02,0.05,0.05,0.05c0,0,0,0,0,0h1.14v-1.79c0.01-0.57,0.47-1.03,1.04-1.02
		c0.56,0.01,1.01,0.46,1.02,1.02v1.79h0.86v-1.12c0.01-0.2,0.18-0.36,0.39-0.35C-195.79,297.83-195.64,297.99-195.63,298.18
		L-195.63,298.18z"/>
</g>
<path class="st0" d="M-104.56,7.18c-0.21,0-0.38,0.17-0.38,0.38v0.42h-0.42c-0.21,0-0.38,0.17-0.38,0.38c0,0.21,0.17,0.38,0.38,0.38
	h0.42v0.42c0,0.21,0.17,0.38,0.38,0.38c0.21,0,0.38-0.17,0.38-0.38V8.76h0.42c0.21,0,0.38-0.17,0.38-0.38
	c0-0.21-0.17-0.38-0.38-0.38h-0.42V7.57C-104.18,7.36-104.35,7.18-104.56,7.18z M-116.86,7.22c-0.1,0-0.2,0.04-0.27,0.11l-1.54,1.54
	c-0.15,0.15-0.15,0.39,0,0.54c0.08,0.08,0.17,0.11,0.27,0.11s0.2-0.04,0.27-0.11l1.54-1.54c0.15-0.15,0.15-0.39,0-0.54
	C-116.67,7.26-116.76,7.22-116.86,7.22z M-118.29,7.3c-0.1,0-0.2,0.04-0.28,0.11c-0.15,0.15-0.15,0.39,0,0.54
	c0.15,0.15,0.39,0.15,0.54,0c0.15-0.15,0.15-0.39,0-0.54C-118.1,7.34-118.19,7.3-118.29,7.3z M-111.87,8.33
	c-0.07,0-0.13,0.02-0.19,0.05l-8.84,5.1c-0.12,0.07-0.19,0.2-0.19,0.33v10.21c0,0.14,0.07,0.26,0.19,0.33l8.84,5.1
	c0.06,0.03,0.13,0.05,0.19,0.05c0.07,0,0.13-0.02,0.19-0.05l8.84-5.1c0.12-0.07,0.19-0.2,0.19-0.33V13.82
	c0-0.14-0.07-0.26-0.19-0.33l-8.84-5.1C-111.73,8.35-111.8,8.33-111.87,8.33z M-116.94,8.65c-0.1,0-0.2,0.04-0.28,0.11
	c-0.15,0.15-0.15,0.39,0,0.54c0.15,0.15,0.39,0.15,0.54,0c0.15-0.15,0.15-0.39,0-0.54C-116.74,8.7-116.84,8.66-116.94,8.65z
	 M-111.87,9.16l8.03,4.64l-4.02,2.32c-0.18,0.11-0.25,0.34-0.14,0.53c0.07,0.12,0.2,0.19,0.33,0.19c0.07,0,0.13-0.02,0.19-0.05
	l4.06-2.34v9.37l-8.07,4.66v-3.01c0-0.21-0.17-0.38-0.38-0.38s-0.38,0.17-0.38,0.38v3.01l-8.07-4.66v-9.27l4.06,2.34
	c0.06,0.03,0.13,0.05,0.19,0.05c0.13,0,0.26-0.07,0.33-0.19c0.11-0.18,0.04-0.42-0.14-0.52l-4.1-2.37L-111.87,9.16z M-101.27,10.48
	c-0.1,0-0.2,0.04-0.27,0.11c-0.15,0.15-0.15,0.39,0,0.54l0.3,0.3l-0.3,0.3c-0.15,0.15-0.15,0.39,0,0.54
	c0.08,0.08,0.17,0.11,0.27,0.11s0.2-0.04,0.27-0.11l0.3-0.3l0.3,0.3c0.08,0.08,0.17,0.11,0.27,0.11s0.2-0.04,0.27-0.11
	c0.15-0.15,0.15-0.39,0-0.54l-0.3-0.3l0.3-0.3c0.15-0.15,0.15-0.39,0-0.54c-0.15-0.15-0.39-0.15-0.54,0l-0.3,0.3l-0.3-0.3
	C-101.07,10.52-101.17,10.48-101.27,10.48z M-111.87,10.68c-0.64,0-1.15,0.52-1.15,1.15s0.52,1.15,1.15,1.15s1.15-0.52,1.15-1.15
	S-111.23,10.68-111.87,10.68z M-123.82,11.06c-0.21,0-0.38,0.17-0.38,0.38s0.17,0.38,0.38,0.38h1.61c0.21,0,0.38-0.17,0.38-0.38
	s-0.17-0.38-0.38-0.38H-123.82z M-111.87,11.45c0.21,0,0.38,0.17,0.38,0.38s-0.17,0.38-0.38,0.38c-0.21,0-0.38-0.17-0.38-0.38
	S-112.08,11.45-111.87,11.45z M-113.99,12.32c-0.06,0-0.13,0.02-0.18,0.05c-0.18,0.11-0.25,0.34-0.14,0.52
	c0.11,0.18,0.34,0.25,0.52,0.14c0,0,0,0,0,0c0.18-0.11,0.25-0.34,0.14-0.52C-113.72,12.39-113.85,12.32-113.99,12.32z
	 M-109.76,12.32c-0.13,0.01-0.25,0.08-0.31,0.19c-0.11,0.18-0.04,0.42,0.14,0.53c0,0,0,0,0,0c0.18,0.11,0.42,0.04,0.52-0.14
	c0.11-0.18,0.04-0.42-0.14-0.53c0,0,0,0,0,0C-109.62,12.34-109.69,12.32-109.76,12.32z M-115.32,13.09c-0.06,0-0.13,0.02-0.18,0.05
	c-0.18,0.11-0.25,0.34-0.14,0.52c0.11,0.18,0.34,0.25,0.52,0.14c0.18-0.11,0.25-0.34,0.14-0.52
	C-115.05,13.16-115.18,13.09-115.32,13.09z M-108.43,13.09c-0.13,0.01-0.25,0.08-0.31,0.19c-0.11,0.18-0.04,0.42,0.14,0.53
	c0,0,0,0,0,0c0.18,0.11,0.42,0.04,0.53-0.14c0,0,0,0,0,0c0.11-0.18,0.04-0.42-0.14-0.53c0,0,0,0,0,0
	C-108.28,13.11-108.36,13.09-108.43,13.09z M-111.87,13.71c-0.21,0-0.38,0.17-0.38,0.38v1.3h-0.23c-1.03,0-1.87,0.84-1.87,1.86
	c0,1.03,0.84,1.86,1.87,1.86h0.23v2.17h-1.72c-0.21,0-0.38,0.17-0.38,0.38s0.17,0.38,0.38,0.38h1.72v1.73
	c0,0.21,0.17,0.38,0.38,0.38c0.21,0,0.38-0.17,0.38-0.38v-1.73h0.24c1.02,0,1.85-0.83,1.85-1.86c0-1-0.79-1.81-1.78-1.85
	c-0.01,0-0.02-0.01-0.04-0.01h-0.04h-0.24v-2.18h1.71c0.21,0,0.38-0.17,0.38-0.38c0-0.21-0.17-0.38-0.38-0.38h-1.71v-1.3
	C-111.48,13.88-111.65,13.71-111.87,13.71z M-116.65,13.86c-0.06,0-0.13,0.02-0.18,0.05c-0.18,0.11-0.25,0.34-0.14,0.52
	c0.11,0.18,0.34,0.25,0.53,0.14c0,0,0,0,0,0c0.18-0.11,0.25-0.34,0.14-0.52C-116.38,13.93-116.51,13.85-116.65,13.86z M-107.1,13.86
	c-0.13,0.01-0.25,0.08-0.31,0.19c-0.11,0.18-0.04,0.42,0.14,0.52c0.18,0.11,0.42,0.04,0.52-0.14c0.11-0.18,0.04-0.42-0.14-0.52
	C-106.95,13.87-107.02,13.85-107.1,13.86z M-124.55,14.91c-0.64,0-1.15,0.52-1.15,1.15c0,0.29,0.11,0.55,0.28,0.75l-2,3.5
	c-0.07-0.01-0.13-0.02-0.2-0.02c-0.22,0-0.43,0.07-0.61,0.18l-2.15-1.72c0.04-0.12,0.07-0.24,0.07-0.38c0-0.64-0.52-1.15-1.15-1.15
	c-0.64,0-1.15,0.52-1.15,1.15c0,0.26,0.09,0.5,0.23,0.69l-1.87,2.81c-0.09-0.02-0.18-0.04-0.28-0.04c-0.64,0-1.15,0.52-1.15,1.15
	s0.52,1.15,1.15,1.15c0.64,0,1.15-0.52,1.15-1.15c0-0.26-0.09-0.49-0.23-0.69l1.87-2.81c0.09,0.02,0.18,0.04,0.28,0.04
	c0.22,0,0.43-0.07,0.61-0.18l2.15,1.72c-0.04,0.12-0.07,0.24-0.07,0.37c0,0.64,0.52,1.15,1.15,1.15s1.15-0.52,1.15-1.15
	c0-0.29-0.11-0.55-0.28-0.75l2-3.5c0.07,0.01,0.13,0.02,0.2,0.02c0.64,0,1.15-0.52,1.15-1.15S-123.92,14.91-124.55,14.91z
	 M-124.55,15.68c0.21,0,0.38,0.17,0.38,0.38s-0.17,0.38-0.38,0.38c-0.21,0-0.38-0.17-0.38-0.38S-124.76,15.68-124.55,15.68z
	 M-112.48,16.16h0.23v2.18h-0.23c-0.61,0-1.11-0.49-1.11-1.09S-113.09,16.16-112.48,16.16z M-118.38,16.83
	c-0.21,0-0.38,0.17-0.38,0.38s0.17,0.38,0.38,0.38c0.21,0,0.38-0.17,0.38-0.38S-118.17,16.83-118.38,16.83z M-105.31,16.83
	c-0.21,0-0.38,0.17-0.38,0.38s0.17,0.38,0.38,0.38c0.21,0,0.38-0.17,0.38-0.38S-105.1,16.83-105.31,16.83z M-131.47,17.99
	c0.21,0,0.38,0.17,0.38,0.38c0,0.21-0.17,0.38-0.38,0.38c-0.21,0-0.38-0.17-0.38-0.38C-131.86,18.16-131.69,17.99-131.47,17.99z
	 M-118.38,18.37c-0.21,0-0.38,0.17-0.38,0.38c0,0.21,0.17,0.38,0.38,0.38c0.21,0,0.38-0.17,0.38-0.38
	C-118,18.54-118.17,18.37-118.38,18.37z M-105.31,18.37c-0.21,0-0.38,0.17-0.38,0.38c0,0.21,0.17,0.38,0.38,0.38
	c0.21,0,0.38-0.17,0.38-0.38C-104.93,18.54-105.1,18.37-105.31,18.37z M-111.48,19.11h0.24c0.6,0,1.09,0.49,1.09,1.09
	c0,0.6-0.49,1.09-1.09,1.09h-0.24V19.11z M-118.38,19.91c-0.21,0-0.38,0.17-0.38,0.38c0,0.21,0.17,0.38,0.38,0.38
	c0.21,0,0.38-0.17,0.38-0.38C-118,20.08-118.17,19.91-118.38,19.91z M-105.31,19.91c-0.21,0-0.38,0.17-0.38,0.38
	c0,0.21,0.17,0.38,0.38,0.38c0.21,0,0.38-0.17,0.38-0.38C-104.93,20.08-105.1,19.91-105.31,19.91z M-127.63,21.06
	c0.21,0,0.38,0.17,0.38,0.38c0,0.21-0.17,0.38-0.38,0.38c-0.21,0-0.38-0.17-0.38-0.38C-128.01,21.23-127.84,21.06-127.63,21.06z
	 M-118.47,21.45c-0.08,0-0.15,0.02-0.23,0.04c-0.3,0.08-0.55,0.27-0.7,0.54c-0.32,0.55-0.13,1.26,0.42,1.58
	c0.18,0.1,0.38,0.15,0.58,0.15c0.1,0,0.2-0.01,0.3-0.04c0.3-0.08,0.55-0.27,0.7-0.54c0.15-0.27,0.19-0.58,0.11-0.87
	c-0.08-0.3-0.27-0.55-0.54-0.7C-118.02,21.48-118.25,21.43-118.47,21.45z M-105.26,21.45c-0.23-0.01-0.45,0.04-0.65,0.15
	c-0.55,0.32-0.74,1.02-0.42,1.58c0.15,0.27,0.4,0.46,0.7,0.54c0.1,0.03,0.2,0.04,0.3,0.04c0.2,0,0.4-0.05,0.57-0.16
	c0.27-0.15,0.46-0.4,0.54-0.7c0.08-0.3,0.04-0.61-0.12-0.88c-0.15-0.27-0.4-0.46-0.7-0.54C-105.1,21.46-105.18,21.45-105.26,21.45z
	 M-118.4,22.21c0.07,0,0.13,0.02,0.19,0.05c0.18,0.11,0.25,0.34,0.14,0.53c-0.11,0.18-0.34,0.25-0.52,0.14h0
	c-0.18-0.11-0.25-0.34-0.14-0.53c0.05-0.09,0.13-0.15,0.23-0.18C-118.47,22.22-118.43,22.21-118.4,22.21z M-105.33,22.21
	c0.13,0,0.26,0.07,0.33,0.19c0.11,0.18,0.04,0.42-0.14,0.53h0c-0.09,0.05-0.19,0.06-0.29,0.04c-0.1-0.03-0.18-0.09-0.23-0.18
	c-0.11-0.18-0.04-0.42,0.14-0.53C-105.46,22.23-105.39,22.21-105.33,22.21z M-134.55,22.6c0.21,0,0.38,0.17,0.38,0.38
	s-0.17,0.38-0.38,0.38s-0.38-0.17-0.38-0.38S-134.76,22.6-134.55,22.6z M-116.28,23.65c-0.13,0.01-0.25,0.08-0.32,0.19
	c-0.11,0.18-0.04,0.42,0.14,0.52c0.18,0.11,0.42,0.04,0.53-0.14c0,0,0,0,0,0c0.11-0.18,0.04-0.42-0.14-0.52
	C-116.14,23.66-116.21,23.65-116.28,23.65z M-107.46,23.65c-0.06,0-0.13,0.02-0.18,0.05c-0.18,0.11-0.25,0.34-0.14,0.52c0,0,0,0,0,0
	c0.11,0.18,0.34,0.25,0.53,0.14c0,0,0,0,0,0c0.18-0.11,0.25-0.34,0.14-0.53c0,0,0,0,0,0C-107.19,23.72-107.32,23.65-107.46,23.65z
	 M-108.79,24.42c-0.06,0-0.13,0.02-0.18,0.05c-0.18,0.11-0.25,0.34-0.14,0.52c0.11,0.18,0.34,0.25,0.53,0.14c0,0,0,0,0,0
	c0.18-0.11,0.25-0.34,0.14-0.52C-108.52,24.49-108.65,24.41-108.79,24.42z M-114.95,24.42c-0.13,0.01-0.25,0.08-0.31,0.19
	c-0.11,0.18-0.04,0.42,0.14,0.53c0,0,0,0,0,0c0.18,0.11,0.42,0.04,0.53-0.14c0,0,0,0,0,0c0.11-0.18,0.04-0.42-0.14-0.52c0,0,0,0,0,0
	C-114.81,24.43-114.88,24.42-114.95,24.42z M-113.62,25.18c-0.13,0.01-0.25,0.08-0.32,0.19c-0.11,0.18-0.04,0.42,0.14,0.53
	c0,0,0,0,0,0c0.18,0.11,0.42,0.04,0.53-0.14c0,0,0,0,0,0c0.11-0.18,0.04-0.42-0.14-0.53c0,0,0,0,0,0
	C-113.47,25.2-113.54,25.18-113.62,25.18z M-110.13,25.18c-0.06,0-0.13,0.02-0.18,0.05c-0.18,0.11-0.25,0.34-0.14,0.52
	c0.11,0.18,0.34,0.25,0.53,0.14c0,0,0,0,0,0c0.18-0.11,0.25-0.34,0.14-0.52C-109.85,25.26-109.98,25.18-110.13,25.18z
	 M-136.84,26.44c-0.21,0-0.38,0.17-0.38,0.38V39.9c0,0.21,0.17,0.38,0.38,0.38h6.92c0.21,0,0.38-0.17,0.38-0.38v-1.26l12.68,4.29
	c0.47,0.14,0.95,0.21,1.43,0.21c0.98,0,1.93-0.29,2.67-0.83l12.62-6.85l0.25-0.17c0.92-0.46,1.35-1.61,0.96-2.64
	c-0.65-1.49-2-1.49-2.66-1.27l-7.3,3.42c0.07-0.21,0.11-0.44,0.11-0.67c0-1.27-1.03-2.31-2.31-2.31h-6.38
	c-0.68-2.28-2.75-3.84-5.15-3.84h-6.92v-1.15c0-0.21-0.17-0.38-0.38-0.38H-136.84z M-136.45,27.21h6.15v12.3h-6.15V27.21z
	 M-129.53,28.75h6.92c2.15,0,3.99,1.46,4.48,3.55c0.04,0.17,0.2,0.3,0.37,0.3h6.68c0.85,0,1.54,0.69,1.54,1.54s-0.69,1.54-1.54,1.54
	h-7.33c-0.21,0-0.38,0.17-0.38,0.38s0.17,0.38,0.38,0.38h7.33c0.35,0,0.67-0.08,0.97-0.22c0.01,0,0.02,0,0.03-0.01l8.78-4.12
	c0.05-0.02,1.14-0.36,1.66,0.84c0.24,0.64-0.03,1.39-0.63,1.69l-12.89,7.03c-0.95,0.69-2.28,0.89-3.46,0.53l-12.92-4.37V28.75z"/>
<g>
	<path class="st0" d="M-24.11,29.26c-0.3-2.69-3.64-3.75-4.75-4.03c0.81-0.61,1.34-1.57,1.34-2.66c0-1.83-1.49-3.32-3.32-3.32
		c-1.83,0-3.32,1.49-3.32,3.32c0,1.12,0.55,2.1,1.4,2.71c-1.25,0.34-4.29,1.42-4.57,3.98c-0.03,0.3-0.06,0.49-0.08,0.65
		c-0.07,0.48-0.1,0.66-0.08,2.33l-5.06-1.16l-1.67,1.67l8.76,2.84l0.21-0.76v9.82h4.52h4.52v-4.97l0.32,4.13l1.59-0.55l0.01-0.18
		C-24.26,42.64-23.78,32.26-24.11,29.26z M-33.64,22.57c0-1.54,1.25-2.8,2.8-2.8c1.54,0,2.8,1.25,2.8,2.8c0,1.54-1.26,2.8-2.8,2.8
		c-0.4,0-0.77-0.09-1.12-0.24l-0.02-0.05l-0.04,0.01C-32.97,24.65-33.64,23.69-33.64,22.57z M-29.71,25.7l-1.01,1.86l-0.89-1.76
		c0.25,0.06,0.51,0.1,0.78,0.1C-30.44,25.9-30.07,25.82-29.71,25.7z M-24.79,42.88l-0.62,0.21L-26.2,32.9l-0.52,0.02v11.2h-4h-4
		V31.01l-1.09,3.91l-7.44-2.42l0.86-0.86l5.42,1.24l0-0.33c-0.03-1.93,0-2.1,0.07-2.58c0.02-0.16,0.05-0.36,0.09-0.66
		c0.27-2.45,3.66-3.41,4.5-3.61l1.33,2.45l-0.66,6.36l0.67,3.19l0.25-0.06l0.25,0.06l0.67-3.19l-0.66-6.36l1.33-2.45
		c0.83,0.2,4.23,1.16,4.5,3.61C-24.33,32.06-24.73,41.47-24.79,42.88z"/>
	<path class="st0" d="M-51.77,28.02v-0.78H-37V9.29h0.89V7.36H-68v1.93h0.89v17.95h14.77v0.78c-0.73,0.14-1.29,0.77-1.29,1.55
		c0,0.87,0.71,1.57,1.57,1.57c0.87,0,1.57-0.71,1.57-1.57C-50.48,28.79-51.04,28.15-51.77,28.02z M-66.25,26.38V9.29h28.39v17.09
		H-66.25z M-52.05,30.28c-0.39,0-0.72-0.32-0.72-0.72c0-0.33,0.23-0.6,0.54-0.68h0.36c0.31,0.08,0.54,0.35,0.54,0.68
		C-51.34,29.96-51.66,30.28-52.05,30.28z"/>
	<rect x="-55.23" y="20.54" class="st0" width="2.51" height="3.44"/>
	<rect x="-59.05" y="21.98" class="st0" width="2.51" height="2.01"/>
	<rect x="-51.41" y="19.11" class="st0" width="2.51" height="4.87"/>
	<rect x="-47.59" y="17.68" class="st0" width="2.51" height="6.3"/>
	<path class="st0" d="M-46.34,11.69c-1.17,0-2.13,0.95-2.13,2.13s0.95,2.13,2.13,2.13c1.17,0,2.13-0.95,2.13-2.13
		S-45.17,11.69-46.34,11.69z M-46.07,14.84v0.34h-0.53v-0.31c-0.19-0.02-0.37-0.07-0.49-0.15l-0.09-0.06l0.19-0.45l0.16,0.09
		c0.12,0.07,0.29,0.11,0.44,0.11c0.17,0,0.28-0.07,0.28-0.17c0-0.07-0.02-0.14-0.32-0.24c-0.34-0.11-0.7-0.28-0.7-0.64
		c0-0.28,0.21-0.5,0.55-0.59v-0.33h0.53v0.3c0.15,0.02,0.28,0.05,0.4,0.11l0.11,0.05l-0.2,0.44l-0.15-0.07
		c-0.06-0.03-0.18-0.09-0.39-0.09c-0.15,0-0.23,0.05-0.23,0.13c0,0.06,0.02,0.11,0.36,0.23c0.31,0.1,0.66,0.27,0.66,0.67
		C-45.49,14.52-45.72,14.75-46.07,14.84z"/>
	<polygon class="st0" points="-54.68,17.63 -51.2,15.96 -51.66,15.04 -55.13,16.71 -55.63,15.71 -57.34,18.4 -54.18,18.62 	"/>
</g>
<g transform="translate(-150 -260)">
	<g>
		<path class="st0" d="M176.68,281.32h1.48c0.04-1.02-0.14-1.82-0.54-2.41c-0.4-0.58-1.06-0.93-1.97-1.05l0.31-1.17H175l-0.31,1.15
			c-0.51,0.03-1.01,0.15-1.49,0.33c-0.49,0.19-0.93,0.44-1.33,0.76c-0.41,0.32-0.76,0.7-1.06,1.13c-0.3,0.44-0.53,0.91-0.67,1.44
			c-0.14,0.51-0.18,0.95-0.14,1.31c0.04,0.36,0.18,0.67,0.41,0.92c0.23,0.25,0.54,0.46,0.94,0.64c0.4,0.18,0.88,0.35,1.46,0.5
			l-1.24,4.62c-0.67-0.12-1.17-0.4-1.51-0.85c-0.34-0.45-0.41-1.07-0.23-1.85h-1.48c-0.23,1.22-0.1,2.18,0.4,2.87
			c0.5,0.69,1.32,1.09,2.45,1.21l-0.38,1.43h0.96l0.38-1.43c0.57-0.04,1.11-0.16,1.63-0.35c0.51-0.19,0.98-0.44,1.4-0.76
			c0.42-0.32,0.79-0.7,1.1-1.14c0.31-0.44,0.54-0.95,0.69-1.52c0.14-0.54,0.16-0.99,0.06-1.38c-0.1-0.38-0.26-0.7-0.49-0.96
			c-0.22-0.26-0.47-0.46-0.74-0.6c-0.27-0.15-0.52-0.25-0.74-0.3l-0.97-0.28l1.15-4.29C176.29,279.49,176.75,280.17,176.68,281.32z
			 M174.51,285.42c0.25,0.11,0.45,0.25,0.61,0.41s0.26,0.36,0.31,0.58c0.05,0.23,0.04,0.51-0.05,0.85c-0.1,0.37-0.24,0.69-0.42,0.97
			c-0.18,0.27-0.4,0.5-0.65,0.68c-0.25,0.18-0.53,0.32-0.83,0.41c-0.3,0.1-0.61,0.15-0.94,0.17l1.17-4.38
			C173.99,285.21,174.26,285.31,174.51,285.42z M173.23,283.32c-0.27-0.08-0.51-0.17-0.73-0.28c-0.22-0.1-0.39-0.23-0.53-0.38
			c-0.15-0.14-0.24-0.32-0.27-0.54c-0.04-0.22-0.02-0.47,0.06-0.78c0.18-0.66,0.51-1.17,0.99-1.51c0.48-0.34,1.01-0.54,1.58-0.6
			L173.23,283.32z"/>
		<path class="st0" d="M193.77,282.73v-9.16h-10.92v-1.56h9.36v-1.56h-9.75l-0.39-1.56h8.58v-1.56h-8.97l-0.39-1.56h-15.61
			l-0.39,1.56h-8.97v1.56h8.58l-0.39,1.56h-9.75v1.56h9.36v1.56H153.2v21.85h10.92v1.56h13.16c1.61,4.54,5.93,7.8,11.02,7.8
			c6.47,0,11.7-5.24,11.7-11.7C200.02,288.59,197.48,284.7,193.77,282.73z M189.24,275.14c-0.09,0.25-0.14,0.51-0.14,0.78
			c0,1.29,1.05,2.34,2.34,2.34c0.27,0,0.54-0.06,0.78-0.14v3.95c-1.22-0.43-2.53-0.68-3.9-0.68c-1.97,0-3.83,0.49-5.46,1.36v-7.6
			H189.24z M166.9,267.33h13.17l1.17,4.68h-15.51L166.9,267.33z M157.74,293.86c0.09-0.25,0.14-0.51,0.14-0.78
			c0-1.29-1.05-2.34-2.34-2.34c-0.27,0-0.54,0.06-0.78,0.14v-12.77c0.24,0.09,0.51,0.14,0.78,0.14c1.29,0,2.34-1.05,2.34-2.34
			c0-0.27-0.06-0.54-0.14-0.78h6.39v18.73L157.74,293.86L157.74,293.86z M165.68,295.42v-21.85h15.61v10.16
			c-2.84,2.14-4.68,5.52-4.68,9.35c0,0.8,0.08,1.58,0.23,2.34H165.68z M188.31,303.23c-5.6,0-10.14-4.54-10.14-10.14
			c0-5.6,4.54-10.14,10.14-10.14s10.14,4.54,10.14,10.14C198.46,298.68,193.91,303.23,188.31,303.23z"/>
		<polygon class="st0" points="181.29,292.3 181.29,293.86 192.21,293.86 195.33,293.86 195.33,292.3 		"/>
	</g>
</g>
</svg>
