<?xml version="1.0" encoding="utf-8"?>
<!-- Generator: Adobe Illustrator 23.0.2, SVG Export Plug-In . SVG Version: 6.00 Build 0)  -->
<svg version="1.1" id="Capa_1" xmlns="http://www.w3.org/2000/svg" xmlns:xlink="http://www.w3.org/1999/xlink" x="0px" y="0px"
	 viewBox="0 0 52 52" style="enable-background:new 0 0 52 52;" xml:space="preserve">
<style type="text/css">
	.st0{fill:#020203;}
</style>
<g>
	<path class="st0" d="M-102.15,29.1l-3.01-4.58c-0.16-0.27-0.23-0.59-0.27-0.9c-0.51-5.64-4.93-10.14-10.57-10.68
		c0.12,1.17-0.35,2.35-1.25,3.13l-2,1.68l0.63,2.54c0.27,1.1,0,2.23-0.7,3.13c-0.7,0.86-1.76,1.41-2.9,1.41
		c-0.67,0-1.33-0.16-1.92-0.51l-2.23-1.37l-2.19,1.37c-0.08,0.08-0.2,0.12-0.31,0.16c0,0.08,0,0.12,0,0.2
		c0,3.87,1.84,7.63,4.74,10.1c0.35,0.31,0.55,0.7,0.55,1.17v6.73c0,0.55,0.43,0.98,0.94,1.02l10.14,0.86
		c0.63,0.04,1.13-0.43,1.13-1.02v-4.77c0-0.31,0.27-0.55,0.55-0.55h3.52c1.1,0,1.96-0.9,1.96-1.96v-4.77c0-0.2,0.16-0.39,0.39-0.39
		h1.72C-102.19,31.13-101.56,29.96-102.15,29.1z"/>
	<path class="st0" d="M-125.71,20.29l2.97,1.8c0.82,0.51,1.88-0.23,1.64-1.17l-0.82-3.37c-0.08-0.39,0.04-0.82,0.35-1.1l2.66-2.27
		c0.74-0.63,0.35-1.84-0.63-1.92l-3.48-0.27c-0.39-0.04-0.78-0.27-0.94-0.67l-1.33-3.21c-0.39-0.9-1.64-0.9-2.04,0l-1.33,3.21
		c-0.16,0.39-0.51,0.63-0.94,0.67l-3.48,0.27c-0.98,0.04-1.37,1.25-0.63,1.88l2.66,2.27c0.31,0.27,0.43,0.7,0.35,1.1l-0.82,3.4
		c-0.23,0.94,0.82,1.68,1.64,1.17l2.97-1.8C-126.49,20.09-126.06,20.09-125.71,20.29z"/>
</g>
<path class="st0" d="M-58.08,26.84c-0.31-0.93-0.35-1.81-0.12-2.66c0.23-0.96,0.77-1.78,1.35-2.35c0.39-0.39,0.81-0.73,1.23-1.04
	c0.39-0.27,0.77-0.46,1.23-0.62l0,0c0.35-0.12,0.73-0.19,1.12-0.19c1.2-0.12,2.12,0.19,2.78,0.58c0.96,0.54,1.35,1.27,1.35,1.27
	s2.47,0.15,1.39,5.33c0.35,0.12,0.58,0.58,0.19,1.93c-0.46,1.66-0.89,1.78-1.16,1.58c-0.31,1.81-1.27,4.13-4.4,4.24
	c-3.16-0.23-4.17-2.62-4.48-4.44c-0.27-0.04-0.58-0.39-0.96-1.66C-59.04,27.08-58.54,26.81-58.08,26.84z M-53.02,44.56h5.29h5.36
	h3.59h0.04h8.99c-0.04-3.74,0.12-5.71-2.32-6.6c-2.2-0.85-3.51-1.7-3.51-1.7l-1.7,5.36l-0.23,0.73l-0.77-2.16
	c1.74-2.43-0.12-2.55-0.46-2.55l0,0l0,0l0,0l0,0l0,0l0,0c-0.31,0-2.2,0.12-0.46,2.55l-0.77,2.16l-0.23-0.73l-1.7-5.36
	c0,0-0.73,0.5-2.05,1.08c-0.31-0.23-0.69-0.46-1.16-0.62c-2.62-1-4.17-2.01-4.17-2.01l-2.01,6.37l-0.27,0.85l-0.89-2.55
	c2.08-2.89-0.15-3.01-0.54-3.01l0,0l0,0l0,0l0,0l0,0l0,0c-0.39,0-2.62,0.15-0.54,3.01l-0.89,2.55l-0.27-0.85l-2.08-6.41
	c0,0-1.58,1-4.17,2.01c-2.89,1.04-2.7,3.4-2.74,7.83h10.65V44.56z M-43.41,31.28c0.31,1.08,0.58,1.39,0.81,1.39
	c0.23,1.54,1.08,3.55,3.74,3.74c2.62-0.12,3.43-2.05,3.7-3.59c0.23,0.15,0.58,0.08,0.96-1.35c0.31-1.16,0.12-1.54-0.15-1.62
	c0.93-4.36-1.16-4.52-1.16-4.52s-0.31-0.62-1.16-1.04c-0.54-0.31-1.31-0.58-2.35-0.5c-0.35,0-0.66,0.08-0.93,0.19l0,0
	c-0.39,0.12-0.73,0.31-1.04,0.54c-0.39,0.23-0.73,0.54-1.04,0.89c-0.5,0.5-0.96,1.16-1.16,2.01c-0.19,0.69-0.19,1.47,0.08,2.24
	C-43.37,29.62-43.84,29.82-43.41,31.28z M-42.06,12.64c-0.89,0.85-0.93,2.28-0.08,3.16c0.85,0.89,2.28,0.93,3.16,0.08
	c0.89-0.85,0.93-2.28,0.08-3.16C-39.75,11.79-41.18,11.76-42.06,12.64z M-35.66,19.09c-2.28,2.28-5.71,2.62-8.34,1.08l0,0
	c-1.04,0.77-2.16,0.93-2.93,0.81c-0.27-0.04-0.31-0.39-0.08-0.5c0.69-0.35,1.16-1.04,1.43-1.58l-0.08-0.04
	c-2.39-2.7-2.28-6.83,0.27-9.42c2.66-2.66,7.02-2.66,9.72,0C-32.99,12.06-32.99,16.42-35.66,19.09z M-35.43,14.69v-0.66
	c0-0.23-0.19-0.42-0.42-0.42h-0.66c-0.08-0.54-0.31-1.08-0.62-1.54l0.46-0.46c0.15-0.15,0.19-0.42,0-0.62l-0.46-0.46
	c-0.15-0.15-0.42-0.19-0.62,0l-0.39,0.39c-0.46-0.35-0.96-0.54-1.51-0.66V9.59c0-0.23-0.19-0.42-0.42-0.42h-0.66
	c-0.23,0-0.42,0.19-0.42,0.42v0.66c-0.54,0.08-1.08,0.31-1.54,0.62l-0.46-0.46c-0.23-0.27-0.5-0.27-0.66-0.08l-0.46,0.46
	c-0.15,0.15-0.19,0.42,0,0.62l0.46,0.46c-0.35,0.46-0.58,1-0.69,1.54h-0.66c-0.23,0-0.42,0.19-0.42,0.42v0.66
	c0,0.23,0.19,0.42,0.42,0.42h0.62c0.08,0.54,0.31,1.08,0.62,1.58l-0.5,0.42c-0.15,0.15-0.19,0.42,0,0.62l0.46,0.46
	c0.15,0.15,0.42,0.19,0.62,0l0.46-0.42c0.46,0.35,1,0.58,1.54,0.66v0.62c0,0.23,0.19,0.42,0.42,0.42h0.66
	c0.23,0,0.42-0.19,0.42-0.42V18.2c0.54-0.08,1.08-0.31,1.54-0.62l0.46,0.46c0.15,0.15,0.42,0.19,0.62,0l0.46-0.46
	c0.15-0.15,0.19-0.42,0-0.62l-0.46-0.46c0.35-0.46,0.54-1,0.66-1.54h0.66C-35.62,15.11-35.43,14.92-35.43,14.69z"/>
<g transform="translate(0,-284.29998)">
	<path class="st0" d="M29.87,295.57c-0.31,0.01-0.58,0.18-0.74,0.44l-0.61,1.03c-0.2,0.36-0.32,0.76-0.34,1.17v0.56
		c0.02,0.17,0.16,0.29,0.33,0.29c-0.1-0.55,0.26-1.08,0.81-1.18c0.55-0.1,1.08,0.26,1.18,0.81c0.02,0.12,0.02,0.25,0,0.37h4.44
		c-0.1-0.55,0.26-1.08,0.81-1.18s1.08,0.26,1.18,0.81c0.02,0.12,0.02,0.25,0,0.37h0.35c0.19,0,0.34-0.15,0.34-0.33c0,0,0,0,0,0
		v-0.31c0-0.74-0.6-1.34-1.34-1.34h-0.74c-0.05,0-0.1-0.02-0.14-0.06l-1.62-1.44h-3.9C29.89,295.57,29.88,295.57,29.87,295.57
		L29.87,295.57z M31.56,296.01h1.49c0.17,0,0.33,0.06,0.45,0.17l0.85,0.76c0.03,0.02,0.03,0.07,0.01,0.09
		c-0.01,0.02-0.04,0.03-0.06,0.02l-2.68-0.16c-0.04,0-0.06-0.03-0.06-0.07L31.56,296.01z M30.16,296.01c0.01,0,0.01,0,0.02,0h1.05
		v0.8c0,0.04-0.03,0.07-0.07,0.07c0,0,0,0,0,0l-1.58-0.09c-0.04,0-0.06-0.04-0.06-0.07c0-0.01,0-0.02,0.01-0.03l0.27-0.46l0,0
		C29.87,296.1,30.01,296.02,30.16,296.01L30.16,296.01z"/>
	<path class="st0" d="M24.97,293.98c-0.3,0.01-0.59,0.13-0.81,0.34c-0.31,0.3-0.33,0.8-0.02,1.12c0.01,0.01,0.02,0.02,0.02,0.02
		c0.48,0.46,1.23,0.46,1.71,0c0.31-0.3,0.33-0.8,0.02-1.12c-0.01-0.01-0.02-0.02-0.02-0.02C25.63,294.09,25.3,293.96,24.97,293.98z
		 M24.75,294.57c0.01,0,0.02,0,0.03,0v0.22c-0.05,0-0.1,0.04-0.1,0.1c0,0.05,0.04,0.1,0.1,0.1c0.04,0,0.08-0.02,0.09-0.06l0.09-0.18
		v0c0.08-0.16,0.28-0.22,0.44-0.13c0.06,0.03,0.12,0.09,0.15,0.16h0.15V295h-0.14c-0.04,0.13-0.17,0.23-0.31,0.23V295
		c0.05,0,0.1-0.05,0.1-0.1s-0.05-0.1-0.1-0.1c-0.04,0-0.07,0.02-0.09,0.05l-0.1,0.18c-0.08,0.16-0.28,0.22-0.44,0.13
		c-0.07-0.04-0.12-0.1-0.15-0.17h-0.14v-0.23h0.14C24.52,294.66,24.63,294.58,24.75,294.57L24.75,294.57z"/>
	<path class="st0" d="M23.39,291.48v6.82h3.33v-6.82H23.39z M24.26,291.79h1.6c0,0.31,0.25,0.56,0.56,0.56c0,0,0,0,0,0v5.09
		c-0.31,0-0.56,0.25-0.56,0.56c0,0,0,0,0,0h-1.6c0-0.31-0.25-0.56-0.56-0.56c0,0,0,0,0,0v-5.09
		C24.01,292.34,24.26,292.1,24.26,291.79C24.26,291.79,24.26,291.79,24.26,291.79z"/>
	<path class="st0" d="M29.44,309.85c0-2.29-1.85-4.14-4.14-4.14s-4.14,1.85-4.14,4.14c0,0,0,0,0,0c0,2.29,1.85,4.14,4.14,4.14
		S29.44,312.14,29.44,309.85C29.44,309.85,29.44,309.85,29.44,309.85z"/>
	<path class="st0" d="M25.36,297.02c0-0.17-0.13-0.31-0.3-0.31c-0.17,0-0.31,0.13-0.31,0.3c0,0,0,0,0,0.01
		c0,0.17,0.13,0.31,0.3,0.31C25.22,297.33,25.36,297.2,25.36,297.02C25.36,297.02,25.36,297.02,25.36,297.02z"/>
	<path class="st0" d="M25.36,292.76c0-0.17-0.13-0.31-0.3-0.31c-0.17,0-0.31,0.13-0.31,0.3c0,0,0,0,0,0.01
		c0,0.17,0.13,0.31,0.3,0.31C25.22,293.07,25.36,292.94,25.36,292.76C25.36,292.76,25.36,292.76,25.36,292.76z"/>
	<path class="st0" d="M29.89,298.87c0-0.2-0.16-0.37-0.36-0.37s-0.37,0.16-0.37,0.36c0,0,0,0.01,0,0.01c0,0.2,0.16,0.37,0.36,0.37
		C29.72,299.25,29.88,299.08,29.89,298.87C29.89,298.88,29.89,298.88,29.89,298.87z"/>
	<path class="st0" d="M35.97,298.02c-0.45,0-0.83,0.36-0.83,0.82c0,0.01,0,0.03,0,0.04c-0.03,0.45,0.32,0.84,0.77,0.87
		c0.45,0.03,0.84-0.32,0.87-0.77c0-0.03,0-0.07,0-0.1c0.02-0.45-0.34-0.84-0.79-0.85C35.98,298.02,35.98,298.02,35.97,298.02z
		 M35.95,298.28c0.33-0.01,0.6,0.25,0.6,0.58c0,0.01,0,0.01,0,0.02c0,0.33-0.26,0.59-0.59,0.59c-0.33,0-0.59-0.26-0.59-0.59
		C35.37,298.55,35.63,298.28,35.95,298.28z"/>
	<path class="st0" d="M36.33,298.87c0-0.2-0.16-0.37-0.36-0.37s-0.37,0.16-0.37,0.36c0,0,0,0.01,0,0.01c0,0.2,0.16,0.37,0.36,0.37
		C36.16,299.25,36.32,299.08,36.33,298.87C36.33,298.88,36.33,298.88,36.33,298.87z"/>
	<path class="st0" d="M29.53,298.02c-0.45,0-0.83,0.36-0.83,0.82c0,0.01,0,0.03,0,0.04c-0.02,0.45,0.33,0.84,0.79,0.86
		c0.45,0.02,0.84-0.33,0.86-0.79c0-0.02,0-0.05,0-0.07c0.02-0.45-0.34-0.84-0.79-0.85C29.54,298.02,29.54,298.02,29.53,298.02z
		 M29.51,298.27c0.33,0,0.59,0.26,0.6,0.58c0,0.01,0,0.01,0,0.02c0,0.33-0.26,0.59-0.58,0.6c-0.33,0-0.59-0.26-0.6-0.58
		c0,0,0-0.01,0-0.01C28.92,298.55,29.18,298.28,29.51,298.27C29.51,298.27,29.51,298.27,29.51,298.27z"/>
	<path class="st0" d="M25.3,323.37h-1.39l0.68,2.68h0.71c0.74,0,1.34-0.6,1.34-1.35C26.64,323.97,26.04,323.37,25.3,323.37z"/>
	<path class="st0" d="M34.35,328.52v-9.85c0-2.19-1.77-3.96-3.96-3.96h-8.66l2.05,8.17h1.51c1.01,0,1.84,0.82,1.84,1.84
		c0,1.01-0.82,1.84-1.84,1.84h-5.03v3.04h10.57v-11.27c0-0.23,0.19-0.41,0.42-0.41c0.23,0,0.41,0.18,0.41,0.41v10.2
		c0.02,0.74,0.64,1.32,1.38,1.3C33.76,329.8,34.33,329.23,34.35,328.52L34.35,328.52z"/>
	<path class="st0" d="M17.99,315.12v10.93h6.09l-2.85-11.35h-1.47C19.14,314.71,18.54,314.85,17.99,315.12L17.99,315.12z"/>
	<path class="st0" d="M17.5,315.42c-1.07,0.74-1.7,1.96-1.7,3.25v7.38h1.7V315.42z"/>
	<path class="st0" d="M28.37,305.21l-0.45-0.3l2.96-4.43l0.45,0.3L28.37,305.21z"/>
	<path class="st0" d="M25.3,304.59h-0.54v-5.32h0.54V304.59z"/>
	<path class="st0" d="M22.23,305.21l0.45-0.3l-2.96-4.43l-0.45,0.3L22.23,305.21z"/>
	<path class="st0" d="M16.7,293.51c0,0.03,0.02,0.05,0.05,0.05c0.01,0,0.02,0,0.03-0.01l1.43-1.31c0.06-0.06,0.16-0.06,0.22,0
		l3.1,2.83c0.07,0.06,0.07,0.16,0.01,0.23c-0.03,0.03-0.08,0.05-0.12,0.05h-6.2c-0.09,0-0.16-0.07-0.17-0.16
		c0-0.05,0.02-0.09,0.05-0.12l0.76-0.69c0.02-0.01,0.03-0.02,0.03-0.04v-1.33c0-0.09,0.07-0.16,0.16-0.16c0,0,0,0,0,0h0.49
		c0.09,0,0.16,0.07,0.16,0.16L16.7,293.51z"/>
	<path class="st0" d="M20.37,298.18v1.12h0.79c0.03,0,0.05-0.02,0.05-0.05c0,0,0,0,0,0v-3.56c0-0.03-0.02-0.05-0.05-0.05
		c0,0,0,0,0,0h-5.64v3.61c0,0.03,0.02,0.05,0.05,0.05c0,0,0,0,0,0h1.14v-1.79c0.01-0.57,0.47-1.03,1.04-1.02
		c0.56,0.01,1.01,0.46,1.02,1.02v1.79h0.86v-1.12c0.01-0.2,0.18-0.36,0.39-0.35C20.21,297.83,20.36,297.99,20.37,298.18
		L20.37,298.18z"/>
</g>
<path class="st0" d="M111.44,7.18c-0.21,0-0.38,0.17-0.38,0.38v0.42h-0.42c-0.21,0-0.38,0.17-0.38,0.38c0,0.21,0.17,0.38,0.38,0.38
	h0.42v0.42c0,0.21,0.17,0.38,0.38,0.38c0.21,0,0.38-0.17,0.38-0.38V8.76h0.42c0.21,0,0.38-0.17,0.38-0.38
	c0-0.21-0.17-0.38-0.38-0.38h-0.42V7.57C111.82,7.36,111.65,7.18,111.44,7.18z M99.14,7.22c-0.1,0-0.2,0.04-0.27,0.11l-1.54,1.54
	c-0.15,0.15-0.15,0.39,0,0.54c0.08,0.08,0.17,0.11,0.27,0.11s0.2-0.04,0.27-0.11l1.54-1.54c0.15-0.15,0.15-0.39,0-0.54
	C99.33,7.26,99.24,7.22,99.14,7.22z M97.71,7.3c-0.1,0-0.2,0.04-0.28,0.11c-0.15,0.15-0.15,0.39,0,0.54c0.15,0.15,0.39,0.15,0.54,0
	c0.15-0.15,0.15-0.39,0-0.54C97.9,7.34,97.81,7.3,97.71,7.3z M104.13,8.33c-0.07,0-0.13,0.02-0.19,0.05l-8.84,5.1
	c-0.12,0.07-0.19,0.2-0.19,0.33v10.21c0,0.14,0.07,0.26,0.19,0.33l8.84,5.1c0.06,0.03,0.13,0.05,0.19,0.05
	c0.07,0,0.13-0.02,0.19-0.05l8.84-5.1c0.12-0.07,0.19-0.2,0.19-0.33V13.82c0-0.14-0.07-0.26-0.19-0.33l-8.84-5.1
	C104.27,8.35,104.2,8.33,104.13,8.33z M99.06,8.65c-0.1,0-0.2,0.04-0.28,0.11c-0.15,0.15-0.15,0.39,0,0.54
	c0.15,0.15,0.39,0.15,0.54,0c0.15-0.15,0.15-0.39,0-0.54C99.26,8.7,99.16,8.66,99.06,8.65z M104.13,9.16l8.03,4.64l-4.02,2.32
	c-0.18,0.11-0.25,0.34-0.14,0.53c0.07,0.12,0.2,0.19,0.33,0.19c0.07,0,0.13-0.02,0.19-0.05l4.06-2.34v9.37l-8.07,4.66v-3.01
	c0-0.21-0.17-0.38-0.38-0.38s-0.38,0.17-0.38,0.38v3.01l-8.07-4.66v-9.27l4.06,2.34c0.06,0.03,0.13,0.05,0.19,0.05
	c0.13,0,0.26-0.07,0.33-0.19c0.11-0.18,0.04-0.42-0.14-0.52l-4.1-2.37L104.13,9.16z M114.73,10.48c-0.1,0-0.2,0.04-0.27,0.11
	c-0.15,0.15-0.15,0.39,0,0.54l0.3,0.3l-0.3,0.3c-0.15,0.15-0.15,0.39,0,0.54c0.08,0.08,0.17,0.11,0.27,0.11s0.2-0.04,0.27-0.11
	l0.3-0.3l0.3,0.3c0.08,0.08,0.17,0.11,0.27,0.11s0.2-0.04,0.27-0.11c0.15-0.15,0.15-0.39,0-0.54l-0.3-0.3l0.3-0.3
	c0.15-0.15,0.15-0.39,0-0.54c-0.15-0.15-0.39-0.15-0.54,0l-0.3,0.3l-0.3-0.3C114.93,10.52,114.83,10.48,114.73,10.48z M104.13,10.68
	c-0.64,0-1.15,0.52-1.15,1.15s0.52,1.15,1.15,1.15s1.15-0.52,1.15-1.15S104.77,10.68,104.13,10.68z M92.18,11.06
	c-0.21,0-0.38,0.17-0.38,0.38s0.17,0.38,0.38,0.38h1.61c0.21,0,0.38-0.17,0.38-0.38s-0.17-0.38-0.38-0.38H92.18z M104.13,11.45
	c0.21,0,0.38,0.17,0.38,0.38s-0.17,0.38-0.38,0.38c-0.21,0-0.38-0.17-0.38-0.38S103.92,11.45,104.13,11.45z M102.01,12.32
	c-0.06,0-0.13,0.02-0.18,0.05c-0.18,0.11-0.25,0.34-0.14,0.52c0.11,0.18,0.34,0.25,0.52,0.14c0,0,0,0,0,0
	c0.18-0.11,0.25-0.34,0.14-0.52C102.28,12.39,102.15,12.32,102.01,12.32z M106.24,12.32c-0.13,0.01-0.25,0.08-0.31,0.19
	c-0.11,0.18-0.04,0.42,0.14,0.53c0,0,0,0,0,0c0.18,0.11,0.42,0.04,0.52-0.14c0.11-0.18,0.04-0.42-0.14-0.53c0,0,0,0,0,0
	C106.38,12.34,106.31,12.32,106.24,12.32z M100.68,13.09c-0.06,0-0.13,0.02-0.18,0.05c-0.18,0.11-0.25,0.34-0.14,0.52
	c0.11,0.18,0.34,0.25,0.52,0.14c0.18-0.11,0.25-0.34,0.14-0.52C100.95,13.16,100.82,13.09,100.68,13.09z M107.57,13.09
	c-0.13,0.01-0.25,0.08-0.31,0.19c-0.11,0.18-0.04,0.42,0.14,0.53c0,0,0,0,0,0c0.18,0.11,0.42,0.04,0.53-0.14c0,0,0,0,0,0
	c0.11-0.18,0.04-0.42-0.14-0.53c0,0,0,0,0,0C107.72,13.11,107.64,13.09,107.57,13.09z M104.13,13.71c-0.21,0-0.38,0.17-0.38,0.38
	v1.3h-0.23c-1.03,0-1.87,0.84-1.87,1.86c0,1.03,0.84,1.86,1.87,1.86h0.23v2.17h-1.72c-0.21,0-0.38,0.17-0.38,0.38
	s0.17,0.38,0.38,0.38h1.72v1.73c0,0.21,0.17,0.38,0.38,0.38c0.21,0,0.38-0.17,0.38-0.38v-1.73h0.24c1.02,0,1.85-0.83,1.85-1.86
	c0-1-0.79-1.81-1.78-1.85c-0.01,0-0.02-0.01-0.04-0.01h-0.04h-0.24v-2.18h1.71c0.21,0,0.38-0.17,0.38-0.38
	c0-0.21-0.17-0.38-0.38-0.38h-1.71v-1.3C104.52,13.88,104.35,13.71,104.13,13.71z M99.35,13.86c-0.06,0-0.13,0.02-0.18,0.05
	c-0.18,0.11-0.25,0.34-0.14,0.52c0.11,0.18,0.34,0.25,0.53,0.14c0,0,0,0,0,0c0.18-0.11,0.25-0.34,0.14-0.52
	C99.62,13.93,99.49,13.85,99.35,13.86z M108.9,13.86c-0.13,0.01-0.25,0.08-0.31,0.19c-0.11,0.18-0.04,0.42,0.14,0.52
	c0.18,0.11,0.42,0.04,0.52-0.14c0.11-0.18,0.04-0.42-0.14-0.52C109.05,13.87,108.98,13.85,108.9,13.86z M91.45,14.91
	c-0.64,0-1.15,0.52-1.15,1.15c0,0.29,0.11,0.55,0.28,0.75l-2,3.5c-0.07-0.01-0.13-0.02-0.2-0.02c-0.22,0-0.43,0.07-0.61,0.18
	l-2.15-1.72c0.04-0.12,0.07-0.24,0.07-0.38c0-0.64-0.52-1.15-1.15-1.15s-1.15,0.52-1.15,1.15c0,0.26,0.09,0.5,0.23,0.69l-1.87,2.81
	c-0.09-0.02-0.18-0.04-0.28-0.04c-0.64,0-1.15,0.52-1.15,1.15s0.52,1.15,1.15,1.15s1.15-0.52,1.15-1.15c0-0.26-0.09-0.49-0.23-0.69
	l1.87-2.81c0.09,0.02,0.18,0.04,0.28,0.04c0.22,0,0.43-0.07,0.61-0.18l2.15,1.72c-0.04,0.12-0.07,0.24-0.07,0.37
	c0,0.64,0.52,1.15,1.15,1.15s1.15-0.52,1.15-1.15c0-0.29-0.11-0.55-0.28-0.75l2-3.5c0.07,0.01,0.13,0.02,0.2,0.02
	c0.64,0,1.15-0.52,1.15-1.15S92.08,14.91,91.45,14.91z M91.45,15.68c0.21,0,0.38,0.17,0.38,0.38s-0.17,0.38-0.38,0.38
	c-0.21,0-0.38-0.17-0.38-0.38S91.24,15.68,91.45,15.68z M103.52,16.16h0.23v2.18h-0.23c-0.61,0-1.11-0.49-1.11-1.09
	S102.91,16.16,103.52,16.16z M97.62,16.83c-0.21,0-0.38,0.17-0.38,0.38s0.17,0.38,0.38,0.38c0.21,0,0.38-0.17,0.38-0.38
	S97.83,16.83,97.62,16.83z M110.69,16.83c-0.21,0-0.38,0.17-0.38,0.38s0.17,0.38,0.38,0.38c0.21,0,0.38-0.17,0.38-0.38
	S110.9,16.83,110.69,16.83z M84.53,17.99c0.21,0,0.38,0.17,0.38,0.38c0,0.21-0.17,0.38-0.38,0.38c-0.21,0-0.38-0.17-0.38-0.38
	C84.14,18.16,84.31,17.99,84.53,17.99z M97.62,18.37c-0.21,0-0.38,0.17-0.38,0.38c0,0.21,0.17,0.38,0.38,0.38
	c0.21,0,0.38-0.17,0.38-0.38C98,18.54,97.83,18.37,97.62,18.37z M110.69,18.37c-0.21,0-0.38,0.17-0.38,0.38
	c0,0.21,0.17,0.38,0.38,0.38c0.21,0,0.38-0.17,0.38-0.38C111.07,18.54,110.9,18.37,110.69,18.37z M104.52,19.11h0.24
	c0.6,0,1.09,0.49,1.09,1.09c0,0.6-0.49,1.09-1.09,1.09h-0.24V19.11z M97.62,19.91c-0.21,0-0.38,0.17-0.38,0.38
	c0,0.21,0.17,0.38,0.38,0.38c0.21,0,0.38-0.17,0.38-0.38C98,20.08,97.83,19.91,97.62,19.91z M110.69,19.91
	c-0.21,0-0.38,0.17-0.38,0.38c0,0.21,0.17,0.38,0.38,0.38c0.21,0,0.38-0.17,0.38-0.38C111.07,20.08,110.9,19.91,110.69,19.91z
	 M88.37,21.06c0.21,0,0.38,0.17,0.38,0.38c0,0.21-0.17,0.38-0.38,0.38c-0.21,0-0.38-0.17-0.38-0.38
	C87.99,21.23,88.16,21.06,88.37,21.06z M97.53,21.45c-0.08,0-0.15,0.02-0.23,0.04c-0.3,0.08-0.55,0.27-0.7,0.54
	c-0.32,0.55-0.13,1.26,0.42,1.58c0.18,0.1,0.38,0.15,0.58,0.15c0.1,0,0.2-0.01,0.3-0.04c0.3-0.08,0.55-0.27,0.7-0.54
	c0.15-0.27,0.19-0.58,0.11-0.87c-0.08-0.3-0.27-0.55-0.54-0.7C97.98,21.48,97.75,21.43,97.53,21.45z M110.74,21.45
	c-0.23-0.01-0.45,0.04-0.65,0.15c-0.55,0.32-0.74,1.02-0.42,1.58c0.15,0.27,0.4,0.46,0.7,0.54c0.1,0.03,0.2,0.04,0.3,0.04
	c0.2,0,0.4-0.05,0.57-0.16c0.27-0.15,0.46-0.4,0.54-0.7c0.08-0.3,0.04-0.61-0.12-0.88c-0.15-0.27-0.4-0.46-0.7-0.54
	C110.9,21.46,110.82,21.45,110.74,21.45z M97.6,22.21c0.07,0,0.13,0.02,0.19,0.05c0.18,0.11,0.25,0.34,0.14,0.53
	c-0.11,0.18-0.34,0.25-0.52,0.14h0c-0.18-0.11-0.25-0.34-0.14-0.53c0.05-0.09,0.13-0.15,0.23-0.18
	C97.53,22.22,97.57,22.21,97.6,22.21z M110.67,22.21c0.13,0,0.26,0.07,0.33,0.19c0.11,0.18,0.04,0.42-0.14,0.53h0
	c-0.09,0.05-0.19,0.06-0.29,0.04c-0.1-0.03-0.18-0.09-0.23-0.18c-0.11-0.18-0.04-0.42,0.14-0.53
	C110.54,22.23,110.61,22.21,110.67,22.21z M81.45,22.6c0.21,0,0.38,0.17,0.38,0.38s-0.17,0.38-0.38,0.38
	c-0.21,0-0.38-0.17-0.38-0.38S81.24,22.6,81.45,22.6z M99.72,23.65c-0.13,0.01-0.25,0.08-0.32,0.19c-0.11,0.18-0.04,0.42,0.14,0.52
	c0.18,0.11,0.42,0.04,0.53-0.14c0,0,0,0,0,0c0.11-0.18,0.04-0.42-0.14-0.52C99.86,23.66,99.79,23.65,99.72,23.65z M108.54,23.65
	c-0.06,0-0.13,0.02-0.18,0.05c-0.18,0.11-0.25,0.34-0.14,0.52c0,0,0,0,0,0c0.11,0.18,0.34,0.25,0.53,0.14c0,0,0,0,0,0
	c0.18-0.11,0.25-0.34,0.14-0.53c0,0,0,0,0,0C108.81,23.72,108.68,23.65,108.54,23.65z M107.21,24.42c-0.06,0-0.13,0.02-0.18,0.05
	c-0.18,0.11-0.25,0.34-0.14,0.52c0.11,0.18,0.34,0.25,0.53,0.14c0,0,0,0,0,0c0.18-0.11,0.25-0.34,0.14-0.52
	C107.48,24.49,107.35,24.41,107.21,24.42z M101.05,24.42c-0.13,0.01-0.25,0.08-0.31,0.19c-0.11,0.18-0.04,0.42,0.14,0.53
	c0,0,0,0,0,0c0.18,0.11,0.42,0.04,0.53-0.14c0,0,0,0,0,0c0.11-0.18,0.04-0.42-0.14-0.52c0,0,0,0,0,0
	C101.19,24.43,101.12,24.42,101.05,24.42z M102.38,25.18c-0.13,0.01-0.25,0.08-0.32,0.19c-0.11,0.18-0.04,0.42,0.14,0.53
	c0,0,0,0,0,0c0.18,0.11,0.42,0.04,0.53-0.14c0,0,0,0,0,0c0.11-0.18,0.04-0.42-0.14-0.53c0,0,0,0,0,0
	C102.53,25.2,102.46,25.18,102.38,25.18z M105.87,25.18c-0.06,0-0.13,0.02-0.18,0.05c-0.18,0.11-0.25,0.34-0.14,0.52
	c0.11,0.18,0.34,0.25,0.53,0.14c0,0,0,0,0,0c0.18-0.11,0.25-0.34,0.14-0.52C106.15,25.26,106.02,25.18,105.87,25.18z M79.16,26.44
	c-0.21,0-0.38,0.17-0.38,0.38V39.9c0,0.21,0.17,0.38,0.38,0.38h6.92c0.21,0,0.38-0.17,0.38-0.38v-1.26l12.68,4.29
	c0.47,0.14,0.95,0.21,1.43,0.21c0.98,0,1.93-0.29,2.67-0.83l12.62-6.85l0.25-0.17c0.92-0.46,1.35-1.61,0.96-2.64
	c-0.65-1.49-2-1.49-2.66-1.27l-7.3,3.42c0.07-0.21,0.11-0.44,0.11-0.67c0-1.27-1.03-2.31-2.31-2.31h-6.38
	c-0.68-2.28-2.75-3.84-5.15-3.84h-6.92v-1.15c0-0.21-0.17-0.38-0.38-0.38H79.16z M79.55,27.21h6.15v12.3h-6.15V27.21z M86.47,28.75
	h6.92c2.15,0,3.99,1.46,4.48,3.55c0.04,0.17,0.2,0.3,0.37,0.3h6.68c0.85,0,1.54,0.69,1.54,1.54s-0.69,1.54-1.54,1.54h-7.33
	c-0.21,0-0.38,0.17-0.38,0.38s0.17,0.38,0.38,0.38h7.33c0.35,0,0.67-0.08,0.97-0.22c0.01,0,0.02,0,0.03-0.01l8.78-4.12
	c0.05-0.02,1.14-0.36,1.66,0.84c0.24,0.64-0.03,1.39-0.63,1.69l-12.89,7.03c-0.95,0.69-2.28,0.89-3.46,0.53l-12.92-4.37V28.75z"/>
<g>
	<path class="st0" d="M191.89,29.26c-0.3-2.69-3.64-3.75-4.75-4.03c0.81-0.61,1.34-1.57,1.34-2.66c0-1.83-1.49-3.32-3.32-3.32
		c-1.83,0-3.32,1.49-3.32,3.32c0,1.12,0.55,2.1,1.4,2.71c-1.25,0.34-4.29,1.42-4.57,3.98c-0.03,0.3-0.06,0.49-0.08,0.65
		c-0.07,0.48-0.1,0.66-0.08,2.33l-5.06-1.16l-1.67,1.67l8.76,2.84l0.21-0.76v9.82h4.52h4.52v-4.97l0.32,4.13l1.59-0.55l0.01-0.18
		C191.74,42.64,192.22,32.26,191.89,29.26z M182.36,22.57c0-1.54,1.25-2.8,2.8-2.8c1.54,0,2.8,1.25,2.8,2.8c0,1.54-1.26,2.8-2.8,2.8
		c-0.4,0-0.77-0.09-1.12-0.24l-0.02-0.05l-0.04,0.01C183.03,24.65,182.36,23.69,182.36,22.57z M186.29,25.7l-1.01,1.86l-0.89-1.76
		c0.25,0.06,0.51,0.1,0.78,0.1C185.56,25.9,185.93,25.82,186.29,25.7z M191.21,42.88l-0.62,0.21L189.8,32.9l-0.52,0.02v11.2h-4h-4
		V31.01l-1.09,3.91l-7.44-2.42l0.86-0.86l5.42,1.24l0-0.33c-0.03-1.93,0-2.1,0.07-2.58c0.02-0.16,0.05-0.36,0.09-0.66
		c0.27-2.45,3.66-3.41,4.5-3.61l1.33,2.45l-0.66,6.36l0.67,3.19l0.25-0.06l0.25,0.06l0.67-3.19l-0.66-6.36l1.33-2.45
		c0.83,0.2,4.23,1.16,4.5,3.61C191.67,32.06,191.27,41.47,191.21,42.88z"/>
	<path class="st0" d="M164.23,28.02v-0.78H179V9.29h0.89V7.36H148v1.93h0.89v17.95h14.77v0.78c-0.73,0.14-1.29,0.77-1.29,1.55
		c0,0.87,0.71,1.57,1.57,1.57s1.57-0.71,1.57-1.57C165.52,28.79,164.96,28.15,164.23,28.02z M149.75,26.38V9.29h28.39v17.09H149.75z
		 M163.95,30.28c-0.39,0-0.72-0.32-0.72-0.72c0-0.33,0.23-0.6,0.54-0.68h0.36c0.31,0.08,0.54,0.35,0.54,0.68
		C164.66,29.96,164.34,30.28,163.95,30.28z"/>
	<rect x="160.77" y="20.54" class="st0" width="2.51" height="3.44"/>
	<rect x="156.95" y="21.98" class="st0" width="2.51" height="2.01"/>
	<rect x="164.59" y="19.11" class="st0" width="2.51" height="4.87"/>
	<rect x="168.41" y="17.68" class="st0" width="2.51" height="6.3"/>
	<path class="st0" d="M169.66,11.69c-1.17,0-2.13,0.95-2.13,2.13s0.95,2.13,2.13,2.13c1.17,0,2.13-0.95,2.13-2.13
		S170.83,11.69,169.66,11.69z M169.93,14.84v0.34h-0.53v-0.31c-0.19-0.02-0.37-0.07-0.49-0.15l-0.09-0.06l0.19-0.45l0.16,0.09
		c0.12,0.07,0.29,0.11,0.44,0.11c0.17,0,0.28-0.07,0.28-0.17c0-0.07-0.02-0.14-0.32-0.24c-0.34-0.11-0.7-0.28-0.7-0.64
		c0-0.28,0.21-0.5,0.55-0.59v-0.33h0.53v0.3c0.15,0.02,0.28,0.05,0.4,0.11l0.11,0.05l-0.2,0.44l-0.15-0.07
		c-0.06-0.03-0.18-0.09-0.39-0.09c-0.15,0-0.23,0.05-0.23,0.13c0,0.06,0.02,0.11,0.36,0.23c0.31,0.1,0.66,0.27,0.66,0.67
		C170.51,14.52,170.28,14.75,169.93,14.84z"/>
	<polygon class="st0" points="161.32,17.63 164.8,15.96 164.34,15.04 160.87,16.71 160.37,15.71 158.66,18.4 161.82,18.62 	"/>
</g>
<g transform="translate(-150 -260)">
	<g>
		<path class="st0" d="M392.68,281.32h1.48c0.04-1.02-0.14-1.82-0.54-2.41c-0.4-0.58-1.06-0.93-1.97-1.05l0.31-1.17H391l-0.31,1.15
			c-0.51,0.03-1.01,0.15-1.49,0.33c-0.49,0.19-0.93,0.44-1.33,0.76c-0.41,0.32-0.76,0.7-1.06,1.13c-0.3,0.44-0.53,0.91-0.67,1.44
			c-0.14,0.51-0.18,0.95-0.14,1.31c0.04,0.36,0.18,0.67,0.41,0.92c0.23,0.25,0.54,0.46,0.94,0.64c0.4,0.18,0.88,0.35,1.46,0.5
			l-1.24,4.62c-0.67-0.12-1.17-0.4-1.51-0.85c-0.34-0.45-0.41-1.07-0.23-1.85h-1.48c-0.23,1.22-0.1,2.18,0.4,2.87
			c0.5,0.69,1.32,1.09,2.45,1.21l-0.38,1.43h0.96l0.38-1.43c0.57-0.04,1.11-0.16,1.63-0.35c0.51-0.19,0.98-0.44,1.4-0.76
			c0.42-0.32,0.79-0.7,1.1-1.14c0.31-0.44,0.54-0.95,0.69-1.52c0.14-0.54,0.16-0.99,0.06-1.38c-0.1-0.38-0.26-0.7-0.49-0.96
			c-0.22-0.26-0.47-0.46-0.74-0.6c-0.27-0.15-0.52-0.25-0.74-0.3l-0.97-0.28l1.15-4.29C392.29,279.49,392.75,280.17,392.68,281.32z
			 M390.51,285.42c0.25,0.11,0.45,0.25,0.61,0.41s0.26,0.36,0.31,0.58c0.05,0.23,0.04,0.51-0.05,0.85c-0.1,0.37-0.24,0.69-0.42,0.97
			c-0.18,0.27-0.4,0.5-0.65,0.68c-0.25,0.18-0.53,0.32-0.83,0.41c-0.3,0.1-0.61,0.15-0.94,0.17l1.17-4.38
			C389.99,285.21,390.26,285.31,390.51,285.42z M389.23,283.32c-0.27-0.08-0.51-0.17-0.73-0.28c-0.22-0.1-0.39-0.23-0.53-0.38
			c-0.15-0.14-0.24-0.32-0.27-0.54c-0.04-0.22-0.02-0.47,0.06-0.78c0.18-0.66,0.51-1.17,0.99-1.51c0.48-0.34,1.01-0.54,1.58-0.6
			L389.23,283.32z"/>
		<path class="st0" d="M409.77,282.73v-9.16h-10.92v-1.56h9.36v-1.56h-9.75l-0.39-1.56h8.58v-1.56h-8.97l-0.39-1.56h-15.61
			l-0.39,1.56h-8.97v1.56h8.58l-0.39,1.56h-9.75v1.56h9.36v1.56H369.2v21.85h10.92v1.56h13.16c1.61,4.54,5.93,7.8,11.02,7.8
			c6.47,0,11.7-5.24,11.7-11.7C416.02,288.59,413.48,284.7,409.77,282.73z M405.24,275.14c-0.09,0.25-0.14,0.51-0.14,0.78
			c0,1.29,1.05,2.34,2.34,2.34c0.27,0,0.54-0.06,0.78-0.14v3.95c-1.22-0.43-2.53-0.68-3.9-0.68c-1.97,0-3.83,0.49-5.46,1.36v-7.6
			H405.24z M382.9,267.33h13.17l1.17,4.68h-15.51L382.9,267.33z M373.74,293.86c0.09-0.25,0.14-0.51,0.14-0.78
			c0-1.29-1.05-2.34-2.34-2.34c-0.27,0-0.54,0.06-0.78,0.14v-12.77c0.24,0.09,0.51,0.14,0.78,0.14c1.29,0,2.34-1.05,2.34-2.34
			c0-0.27-0.06-0.54-0.14-0.78h6.39v18.73L373.74,293.86L373.74,293.86z M381.68,295.42v-21.85h15.61v10.16
			c-2.84,2.14-4.68,5.52-4.68,9.35c0,0.8,0.08,1.58,0.23,2.34H381.68z M404.31,303.23c-5.6,0-10.14-4.54-10.14-10.14
			c0-5.6,4.54-10.14,10.14-10.14c5.6,0,10.14,4.54,10.14,10.14C414.46,298.68,409.91,303.23,404.31,303.23z"/>
		<polygon class="st0" points="397.29,292.3 397.29,293.86 408.21,293.86 411.33,293.86 411.33,292.3 		"/>
	</g>
</g>
</svg>
