<?xml version="1.0" encoding="utf-8"?>
<!-- Generator: Adobe Illustrator 23.0.2, SVG Export Plug-In . SVG Version: 6.00 Build 0)  -->
<svg version="1.1" xmlns="http://www.w3.org/2000/svg" xmlns:xlink="http://www.w3.org/1999/xlink" x="0px" y="0px"
	 viewBox="0 0 642.43 150.53" style="enable-background:new 0 0 642.43 150.53;" xml:space="preserve">
<style type="text/css">
	.st0{display:none;}
	.st1{display:inline;}
	.st2{fill:#17202D;stroke:#FFFFFF;stroke-miterlimit:10;}
	.st3{fill:#E18B1D;stroke:#FFFFFF;stroke-miterlimit:10;}
	.st4{font-family:'Poppins-Bold';}
	.st5{font-size:139.8867px;}
	.st6{fill:#17202D;}
	.st7{fill:#FFFFFF;}
	.st8{fill:#E18B1D;}
</style>
<g id="Capa_2" class="st0">
	<g class="st1">
		<path class="st2" d="M207.36,14.11l-59.14,59.14l59.14,59.14l59.14-59.14L207.36,14.11z M207.36,114.22l-40.97-40.97l40.97-40.97
			l40.97,40.97L207.36,114.22z"/>
		<path class="st2" d="M68.61,14.11L9.46,73.25l59.14,59.14l59.14-59.14L68.61,14.11z M68.61,114.22L27.64,73.25l40.97-40.97
			l40.97,40.97L68.61,114.22z"/>
		<path class="st3" d="M131.37,2.46l-70.8,70.8l70.8,70.8l70.8-70.8L131.37,2.46z M131.37,121.78L82.84,73.25l48.53-48.53
			l48.53,48.53L131.37,121.78z"/>
		<g>
			<text transform="matrix(1 0 0 1 289.7821 119.8819)"><tspan x="0" y="0" class="st2 st4 st5">PE</tspan><tspan x="162.96" y="0" class="st3 st4 st5">E</tspan><tspan x="238.64" y="0" class="st2 st4 st5">C</tspan></text>
		</g>
	</g>
</g>
<g id="Capa_2_copia">
	<g>
		<g>
			<path class="st6" d="M209.36,17.11l-59.14,59.14l59.14,59.14l59.14-59.14L209.36,17.11z M209.36,117.22l-40.97-40.97l40.97-40.97
				l40.97,40.97L209.36,117.22z"/>
			<path class="st7" d="M209.36,136.1l-59.85-59.85l59.85-59.85l59.85,59.85L209.36,136.1z M150.92,76.25l58.44,58.44l58.44-58.44
				l-58.44-58.44L150.92,76.25z M209.36,117.93l-41.68-41.68l41.68-41.68l41.68,41.68L209.36,117.93z M169.1,76.25l40.26,40.26
				l40.26-40.26l-40.26-40.26L169.1,76.25z"/>
		</g>
		<g>
			<path class="st6" d="M70.61,17.11L11.46,76.25l59.14,59.14l59.14-59.14L70.61,17.11z M70.61,117.22L29.64,76.25l40.97-40.97
				l40.97,40.97L70.61,117.22z"/>
			<path class="st7" d="M70.61,136.1L10.75,76.25L70.61,16.4l59.85,59.85L70.61,136.1z M12.17,76.25l58.44,58.44l58.44-58.44
				L70.61,17.81L12.17,76.25z M70.61,117.93L28.93,76.25l41.68-41.68l41.68,41.68L70.61,117.93z M30.34,76.25l40.26,40.26
				l40.26-40.26L70.61,35.99L30.34,76.25z"/>
		</g>
		<g>
			<path class="st8" d="M133.37,5.46l-70.8,70.8l70.8,70.8l70.8-70.8L133.37,5.46z M133.37,124.78L84.84,76.25l48.53-48.53
				l48.53,48.53L133.37,124.78z"/>
			<path class="st7" d="M133.37,147.76l-71.5-71.5l71.5-71.5l71.5,71.5L133.37,147.76z M63.28,76.25l70.09,70.09l70.09-70.09
				L133.37,6.16L63.28,76.25z M133.37,125.49L84.13,76.25l49.24-49.24l49.24,49.24L133.37,125.49z M85.55,76.25l47.82,47.82
				l47.82-47.82l-47.82-47.82L85.55,76.25z"/>
		</g>
		<g>
			<g>
				<path class="st6" d="M327.08,90.31h-14.83v35.25h-23.92v-98.2h38.75c24.06,0,36.09,13.57,36.09,31.62
					C363.18,75.2,352.12,90.31,327.08,90.31z M325.26,71.29c9.51,0,13.57-4.76,13.57-12.31s-4.06-12.31-13.57-12.31h-13.01v24.62
					H325.26z"/>
				<path class="st7" d="M312.75,126.06h-24.92v-99.2h39.25c22.57,0,36.59,12.31,36.59,32.12c0,14.69-9.58,31.84-36.59,31.84h-14.33
					V126.06z M288.83,125.06h22.92V89.81h15.33c26.27,0,35.59-16.61,35.59-30.84c0-19.19-13.64-31.12-35.59-31.12h-38.25V125.06z
					 M325.26,71.79h-13.51V46.16h13.51c9.2,0,14.07,4.43,14.07,12.81S334.47,71.79,325.26,71.79z M312.75,70.79h12.51
					c8.67,0,13.07-3.97,13.07-11.81s-4.4-11.81-13.07-11.81h-12.51V70.79z"/>
			</g>
			<g>
				<path class="st6" d="M435.77,46.52h-36.23v19.87h32.04v18.47h-32.04v21.54h36.23v19.17h-60.15v-98.2h60.15V46.52z"/>
				<path class="st7" d="M436.27,126.06h-61.15v-99.2h61.15v20.17h-36.23v18.87h32.04v19.47h-32.04v20.54h36.23V126.06z
					 M376.12,125.06h59.15V106.9h-36.23V84.36h32.04V66.89h-32.04V46.02h36.23V27.86h-59.15V125.06z"/>
			</g>
			<g>
				<path class="st8" d="M511.45,46.52h-36.23v19.87h32.04v18.47h-32.04v21.54h36.23v19.17H451.3v-98.2h60.15V46.52z"/>
				<path class="st7" d="M511.95,126.06H450.8v-99.2h61.15v20.17h-36.23v18.87h32.04v19.47h-32.04v20.54h36.23V126.06z
					 M451.8,125.06h59.15V106.9h-36.23V84.36h32.04V66.89h-32.04V46.02h36.23V27.86H451.8V125.06z"/>
			</g>
			<g>
				<path class="st6" d="M572.3,26.24c23.36,0,40.99,13.15,46.58,34.41h-26.3c-4.06-8.39-11.47-12.59-20.56-12.59
					c-14.69,0-24.76,10.91-24.76,28.26s10.07,28.26,24.76,28.26c9.09,0,16.51-4.2,20.56-12.59h26.3
					c-5.6,21.26-23.22,34.27-46.58,34.27c-28.96,0-49.38-20.56-49.38-49.94S543.34,26.24,572.3,26.24z"/>
				<path class="st7" d="M572.3,126.76c-29.37,0-49.88-20.74-49.88-50.44c0-29.78,20.51-50.58,49.88-50.58
					c23.39,0,41.42,13.33,47.07,34.79l0.17,0.63h-27.26l-0.14-0.28c-3.84-7.94-10.98-12.31-20.11-12.31
					c-14.74,0-24.26,10.9-24.26,27.76s9.52,27.76,24.26,27.76c9.13,0,16.28-4.37,20.11-12.31l0.14-0.28h27.26l-0.17,0.63
					C613.74,113.49,595.71,126.76,572.3,126.76z M572.3,26.74c-28.78,0-48.88,20.39-48.88,49.58c0,29.11,20.1,49.44,48.88,49.44
					c22.7,0,40.24-12.73,45.93-33.27H592.9c-4.04,8.12-11.45,12.59-20.88,12.59c-15.11,0-25.26-11.56-25.26-28.76
					s10.15-28.76,25.26-28.76c9.43,0,16.83,4.47,20.88,12.59h25.33C612.52,39.52,594.98,26.74,572.3,26.74z"/>
			</g>
		</g>
	</g>
</g>
</svg>
