<svg height="512pt" viewBox="-26 0 512 512" width="512pt" xmlns="http://www.w3.org/2000/svg"><path d="m290 380c5.519531 0 10-4.480469 10-10s-4.480469-10-10-10-10 4.480469-10 10 4.480469 10 10 10zm0 0"/><path d="m170 380c5.519531 0 10-4.480469 10-10s-4.480469-10-10-10-10 4.480469-10 10 4.480469 10 10 10zm0 0"/><path d="m130 512h200c5.523438 0 10-4.476562 10-10v-44.488281c0-2.421875.882812-4.761719 2.480469-6.589844.023437-.027344.042969-.054687.066406-.082031l110.074219-128.644532c4.757812-5.46875 7.378906-12.464843 7.378906-19.707031v-142.488281c0-22.054688-17.945312-40-40-40s-40 17.945312-40 40c0 0-.019531 85.976562-.03125 86.386719-1.113281-1.480469-2.332031-2.894531-3.667969-4.226563-16.164062-16.164062-41.984375-13.929687-54.125-1.425781l-87.960937 90.628906c-1.523438 1.5625-2.921875 3.210938-4.214844 4.929688-1.285156-1.710938-2.679688-3.355469-4.195312-4.910157l-87.980469-90.648437c-11.90625-12.261719-37.75-14.953125-54.125 1.425781-1.335938 1.335938-2.566407 2.753906-3.683594 4.238282-.011719-.414063-.015625-86.398438-.015625-86.398438 0-22.054688-17.945312-40-40-40s-40 17.945312-40 40v142.488281c0 7.242188 2.621094 14.238281 7.378906 19.703125 0 0 110.117188 128.703125 110.140625 128.730469 1.597657 1.828125 2.480469 4.167969 2.480469 6.589844v44.488281c0 5.523438 4.476562 10 10 10zm118.546875-166.6875 87.628906-90.285156c7.632813-6.269532 18.96875-5.742188 25.984375 1.273437 7.566406 7.566407 7.570313 19.828125 0 27.394531-.003906.003907-.007812.007813-.011718.011719l-50.949219 50.949219c-3.90625 3.90625-3.90625 10.238281 0 14.144531 3.902343 3.902344 10.234375 3.902344 14.140625 0l54.160156-54.160156c13.21875-13.21875 20.5-30.792969 20.5-49.492187v-85.148438c0-11.027344 8.972656-20 20-20s20 8.972656 20 20v142.488281c0 2.421875-.882812 4.761719-2.480469 6.589844-.023437.027344-.042969.054687-.066406.082031l-110.074219 128.648438c-4.757812 5.464844-7.378906 12.460937-7.378906 19.703125v34.488281h-80v-125.71875c0-7.875 3.027344-15.3125 8.546875-20.96875zm-226-36.152344c-.019531-.027344-.042969-.054687-.066406-.082031-1.597657-1.828125-2.480469-4.167969-2.480469-6.589844v-142.488281c0-11.027344 8.972656-20 20-20s20 8.972656 20 20v85.148438c0 18.699218 7.28125 36.273437 20.5 49.492187l54.160156 54.160156c3.90625 3.902344 10.238282 3.90625 14.140625 0 3.90625-3.90625 3.90625-10.238281 0-14.144531l-50.960937-50.960938c-7.566406-7.566406-7.570313-19.824218 0-27.394531 7.015625-7.019531 18.351562-7.542969 25.984375-1.273437l87.648437 90.308594c5.5 5.632812 8.527344 13.070312 8.527344 20.945312v125.71875h-80v-34.488281c0-7.242188-2.621094-14.238281-7.378906-19.703125zm0 0"/><path d="m140 190v20c0 5.523438 4.476562 10 10 10h160c5.523438 0 10-4.476562 10-10v-20c0-49.53125-40.074219-90-90-90-49.625 0-90 40.375-90 90zm90-70c38.613281 0 70 31.246094 70 70v10h-140v-10c0-38.597656 31.402344-70 70-70zm0 0"/><path d="m280 50c0-27.570312-22.429688-50-50-50s-50 22.429688-50 50 22.429688 50 50 50 50-22.429688 50-50zm-50 30c-16.542969 0-30-13.457031-30-30s13.457031-30 30-30 30 13.457031 30 30-13.457031 30-30 30zm0 0"/></svg>