<?xml version="1.0" encoding="iso-8859-1"?>
<!-- Generator: Adobe Illustrator 19.0.0, SVG Export Plug-In . SVG Version: 6.00 Build 0)  -->
<svg version="1.1" id="Layer_1" xmlns="http://www.w3.org/2000/svg" xmlns:xlink="http://www.w3.org/1999/xlink" x="0px" y="0px"
	 viewBox="0 0 512 512" style="enable-background:new 0 0 512 512;" xml:space="preserve">
<g>
	<g>
		<g>
			<path d="M503.096,189.79c-17.756-66.265-60.033-121.52-119.042-155.587C345.39,11.879,301.351,0.078,256.703,0.078
				c-91.707,0-176.965,48.996-222.501,127.866c-34.068,59.009-43.053,128-25.297,194.264c17.756,66.265,60.03,121.52,119.04,155.591
				c8.212,4.739,16.665,9.002,25.318,12.781h-3.973c-5.892,0-10.671,4.778-10.671,10.671c0,5.892,4.78,10.671,10.671,10.671h213.426
				c5.892,0,10.671-4.78,10.671-10.671c0-5.894-4.78-10.671-10.671-10.671h-4.763c49.667-21.555,92.119-58.502,119.846-106.525
				C511.867,325.043,520.852,256.052,503.096,189.79z M459.315,373.382c-41.734,72.29-119.91,117.194-204.018,117.194
				c-40.907,0-81.257-10.809-116.682-31.262C26.507,394.587-12.038,250.72,52.685,138.615
				C94.422,66.327,172.596,21.42,256.704,21.42c40.907,0,81.255,10.811,116.68,31.266c54.072,31.218,92.818,81.871,109.097,142.626
				C498.76,256.068,490.535,319.309,459.315,373.382z"/>
			<path d="M206.287,441.537c-66.075-17.706-118.122-69.751-135.828-135.823c-1.526-5.694-7.37-9.071-13.07-7.547
				c-5.692,1.526-9.071,7.378-7.545,13.07c19.673,73.415,77.503,131.242,150.92,150.916c0.925,0.248,1.855,0.367,2.768,0.367
				c4.712,0,9.025-3.145,10.302-7.914C215.36,448.913,211.981,443.062,206.287,441.537z"/>
			<path d="M311.237,49.846c-5.692-1.524-11.544,1.853-13.07,7.545s1.853,11.544,7.547,13.07
				c66.075,17.706,118.121,69.751,135.826,135.823c1.277,4.767,5.59,7.912,10.302,7.912c0.912,0,1.843-0.118,2.768-0.367
				c5.692-1.526,9.071-7.378,7.545-13.07C442.482,127.346,384.655,69.518,311.237,49.846z"/>
			<path d="M249.621,447.98c-2.676-0.092-5.362-0.238-7.981-0.435c-5.892-0.45-11.003,3.958-11.449,9.834
				c-0.444,5.878,3.958,11.003,9.836,11.449c2.915,0.221,5.902,0.383,8.874,0.483c0.123,0.004,0.244,0.006,0.367,0.006
				c5.727,0,10.465-4.546,10.658-10.313C260.126,453.112,255.511,448.177,249.621,447.98z"/>
			<path d="M262.374,64.022c2.659,0.09,5.353,0.236,8.001,0.433c0.269,0.019,0.538,0.029,0.802,0.029
				c5.534,0,10.215-4.273,10.632-9.882c0.435-5.878-3.975-10.997-9.852-11.432c-2.935-0.219-5.913-0.379-8.856-0.479
				c-5.917-0.217-10.827,4.41-11.028,10.3C251.872,58.883,256.485,63.821,262.374,64.022z"/>
			<path d="M363.898,195.43h-56.952c4.575-21.647,7.616-44.634-4.71-61.61c-8.27-11.391-22.347-18.104-41.841-19.948
				c-0.684-0.065-1.378-0.098-2.064-0.098c-11.196,0-20.792,8.731-21.841,19.869c-3.639,38.377-14.021,59.878-24.667,69.468
				c-1.292-4.435-5.384-7.68-10.238-7.68h-67.817c-5.892,0-10.671,4.778-10.671,10.671v138.764c0,5.894,4.78,10.671,10.671,10.671
				h67.817c4.984,0,9.158-3.422,10.332-8.043c8.006,5.2,18.029,8.043,29.594,8.043h112.762c11.424,0,20.707-8.808,22.073-20.945
				l12.329-109.6c0.973-8.612-1.165-16.346-6.021-21.78C379.479,199.661,373.652,195.43,363.898,195.43z M190.914,219.709v84.689
				v29.796h-46.475v-74.739h23.237c5.894,0,10.671-4.78,10.671-10.671c0-5.894-4.778-10.671-10.671-10.671h-23.237v-21.341h46.475
				V219.709z M367.467,222.602l-12.331,109.604c-0.14,1.234-0.688,1.903-0.815,1.986c0,0-0.015,0.002-0.048,0.002H241.511
				c-25.455,0-29.254-18.668-29.254-29.796v-76.656c6.956-2.86,15.569-8.581,23.564-19.963
				c11.563-16.464,18.937-40.728,21.916-72.127c0.029-0.302,0.298-0.544,0.648-0.534c13.125,1.244,22.068,5.025,26.58,11.24
				c8.516,11.73,3.479,34.215-0.965,54.054l-0.754,3.37c-0.702,3.162,0.068,6.47,2.093,8.994c2.025,2.526,5.087,3.995,8.325,3.995
				h70.234c1.388,0,2.474,0.252,2.839,0.658C367.297,218.061,367.766,219.944,367.467,222.602z"/>
		</g>
	</g>
</g>
<g>
</g>
<g>
</g>
<g>
</g>
<g>
</g>
<g>
</g>
<g>
</g>
<g>
</g>
<g>
</g>
<g>
</g>
<g>
</g>
<g>
</g>
<g>
</g>
<g>
</g>
<g>
</g>
<g>
</g>
</svg>
