<?xml version="1.0" encoding="iso-8859-1"?>
<!-- Generator: Adobe Illustrator 19.0.0, SVG Export Plug-In . SVG Version: 6.00 Build 0)  -->
<svg version="1.1" id="Capa_1" xmlns="http://www.w3.org/2000/svg" xmlns:xlink="http://www.w3.org/1999/xlink" x="0px" y="0px"
	 viewBox="0 0 512 512" style="enable-background:new 0 0 512 512;" xml:space="preserve">
<g>
	<g>
		<path d="M284.942,238.151l4.151-4.151c1.631-1.631,1.186-5.041-0.741-6.968c-2.225-2.225-5.338-2.373-6.969-0.742l-4.447,4.446
			c-14.528-12.155-35.134-19.717-53.814-1.036c-18.976,18.975-9.636,38.1-1.038,55.89l-39.434,39.434
			c-16.159-17.641-8.598-32.318-12.749-36.469c-2.816-2.816-9.342-1.632-12.306,1.333c-6.225,6.226-4.891,28.021,13.343,46.848
			l-4.892,4.892c-1.631,1.631-1.482,4.744,0.742,6.969c1.927,1.927,5.337,2.372,6.968,0.741l5.337-5.337
			c17.493,13.342,37.804,14.381,55.891-3.706c20.309-20.31,13.045-40.028,5.04-57.225l33.8-33.801
			c10.228,11.413,9.489,20.458,12.601,23.57c3.41,3.41,9.785,0.89,12.157-1.481C304.511,265.43,295.021,249.121,284.942,238.151z
			 M221.936,329.621c-9.784,9.784-21.051,10.081-31.875,2.224l36.321-36.321C231.127,307.088,233.203,318.354,221.936,329.621z
			 M235.426,273.435c-5.485-12.009-9.489-22.832,0.741-33.06c9.488-9.489,20.607-6.078,30.391,1.928L235.426,273.435z"/>
	</g>
</g>
<g>
	<g>
		<path d="M500.508,11.14c-16.656-16.656-44.298-14.312-57.925,4.872l-57.072,80.351c-55.602-40.947-134.495-36.28-184.784,14.007
			L5.358,305.741c-6.918,6.919-6.918,18.177,0,25.095l175.976,175.976c6.92,6.918,18.175,6.918,25.095,0
			c5.698-5.698,190.744-190.744,195.37-195.37c23.456-23.456,38.032-54.544,41.043-87.537c0.377-4.123-2.66-7.77-6.783-8.145
			c-4.107-0.372-7.769,2.661-8.145,6.783c-2.693,29.508-15.733,57.316-36.716,78.299l-139.601,139.6
			c-39.593-5.194-76.553-21.459-107.088-47.168c-3.166-2.666-7.895-2.261-10.561,0.906c-2.666,3.166-2.261,7.894,0.906,10.561
			c29.846,25.129,65.416,41.842,103.627,48.816l-42.654,42.654c-1.071,1.073-2.82,1.073-3.893,0L15.959,320.235
			c-1.055-1.054-1.064-2.829,0-3.893l42.653-42.653c7.129,39.085,24.429,75.341,50.523,105.612
			c2.703,3.136,7.437,3.488,10.571,0.784c3.136-2.702,3.487-7.435,0.784-10.571c-26.644-30.911-43.457-68.511-48.76-108.942
			l139.599-139.6c50.388-50.388,133.142-49.712,182.602,2.837l-19.935,14.16c-17.069-16.959-44.942-17.118-62.159,0.1
			c-17.208,17.21-17.209,45.056,0,62.265c17.165,17.165,45.098,17.166,62.264,0c13.538-13.539,16.39-33.772,8.572-50.14
			l20.91-14.852c11.813,15.939,19.701,34.361,23.063,54.158c0.695,4.082,4.565,6.821,8.645,6.135
			c4.081-0.694,6.828-4.563,6.135-8.645c-3.744-22.044-12.501-42.564-25.614-60.333l79.746-56.642
			C515.075,56.15,517.421,28.053,500.508,11.14z M363.497,189.733c-11.32,11.323-29.742,11.321-41.062,0
			c-11.348-11.348-11.349-29.714,0.001-41.062c5.66-5.661,13.095-8.491,20.531-8.491c3.435,0,6.868,0.612,10.127,1.82l-9.956,14.018
			c-2.645,3.726-2.222,8.774,1.01,12.005c3.232,3.232,8.281,3.654,12.004,1.008l14.016-9.955
			C373.991,169.391,371.774,181.458,363.497,189.733z M486.875,57.791l-80.618,57.262c-3.024-3.306-5.596-5.909-9.139-9.146
			l57.686-81.213c8.269-11.641,25.021-13.037,35.102-2.952C500.276,32.109,498.813,49.31,486.875,57.791z"/>
	</g>
</g>
<g>
</g>
<g>
</g>
<g>
</g>
<g>
</g>
<g>
</g>
<g>
</g>
<g>
</g>
<g>
</g>
<g>
</g>
<g>
</g>
<g>
</g>
<g>
</g>
<g>
</g>
<g>
</g>
<g>
</g>
</svg>
